<svg version="1.1" xmlns="http://www.w3.org/2000/svg" xmlns:xlink="http://www.w3.org/1999/xlink" width="76.31907" height="214.8548" viewBox="0,0,76.31907,214.8548"><g transform="translate(-282.17055,-72.4758)"><g data-paper-data="{&quot;isPaintingLayer&quot;:true}" fill-rule="nonzero" stroke-linejoin="miter" stroke-miterlimit="10" stroke-dasharray="" stroke-dashoffset="0" style="mix-blend-mode: normal"><path d="M319.68948,207.81152l-5.93264,74.44763l-5.2481,1.57145" fill="none" stroke="#242424" stroke-width="7" stroke-linecap="round"/><path d="M331.09839,283.8306l-5.2481,-1.57145l-5.93264,-74.44763" data-paper-data="{&quot;index&quot;:null}" fill="none" stroke="#242424" stroke-width="7" stroke-linecap="round"/><path d="M319.81535,145.93552v63.64389" fill="none" stroke="#242424" stroke-width="7" stroke-linecap="round"/><path d="M320.09822,145.60219l6.16783,68.66667" fill="none" stroke="#242424" stroke-width="7" stroke-linecap="round"/><path d="M319.90179,145.93552l-7.50116,68" data-paper-data="{&quot;index&quot;:null}" fill="none" stroke="#242424" stroke-width="7" stroke-linecap="round"/><path d="M285.67055,107.16058c1.97053,-19.09046 19.04384,-32.96891 38.1343,-30.99838c19.09046,1.97053 32.96891,19.04384 30.99838,38.1343c-1.97053,19.09046 -19.04384,32.96891 -38.1343,30.99838c-19.09046,-1.97053 -32.96891,-19.04384 -30.99838,-38.1343z" fill="#ffffff" stroke="#242424" stroke-width="7" stroke-linecap="butt"/><path d="M289.97312,96.72471l62.91572,6.4942" fill="none" stroke="#242424" stroke-width="7" stroke-linecap="round"/><path d="M289.50143,96.4247c0,0 2.23753,-22.29581 33.19769,-19.69552c29.46212,2.47448 29.69236,26.43839 29.69236,26.43839z" fill="#242424" stroke="#242424" stroke-width="0" stroke-linecap="butt"/><path d="M306.9905,118.74746l0.27534,-9.74611" fill="none" stroke="#242424" stroke-width="7" stroke-linecap="round"/><path d="M326.75667,110.83742l-0.27534,9.74611" data-paper-data="{&quot;index&quot;:null}" fill="none" stroke="#242424" stroke-width="7" stroke-linecap="round"/><path d="M307.99728,133.03339c0,0 12.42425,-10.9702 17.04325,2.73956c0.27953,0.82968 -13.11123,1.63393 -13.11123,1.63393" fill="none" stroke="#242424" stroke-width="5" stroke-linecap="round"/></g></g></svg>