<svg version="1.1" xmlns="http://www.w3.org/2000/svg" xmlns:xlink="http://www.w3.org/1999/xlink" width="76.40492" height="216.8628" viewBox="0,0,76.40492,216.8628"><g transform="translate(-281.70182,-72.6678)"><g data-paper-data="{&quot;isPaintingLayer&quot;:true}" fill-rule="nonzero" stroke="#242424" stroke-linejoin="miter" stroke-miterlimit="10" stroke-dasharray="" stroke-dashoffset="0" style="mix-blend-mode: normal"><path d="M319.68948,207.81152c-12.72775,41.49192 -4.93264,65.84763 -4.93264,65.84763l-3.8481,5.57145" fill="none" stroke-width="7" stroke-linecap="round"/><path d="M327.29839,286.0306l-3.0481,-4.17145l-4.33264,-74.04763" data-paper-data="{&quot;index&quot;:null}" fill="none" stroke-width="7" stroke-linecap="round"/><path d="M319.81535,145.93552v63.64389" fill="none" stroke-width="7" stroke-linecap="round"/><path d="M320.09822,145.60219l6.16783,68.66667" fill="none" stroke-width="7" stroke-linecap="round"/><path d="M319.10179,146.13552c-18.99119,48.48764 -1.89133,62.30318 -1.89133,62.30318l-2.00983,3.69682" data-paper-data="{&quot;index&quot;:null}" fill="none" stroke-width="7" stroke-linecap="round"/><path d="M285.20182,108.32904c1.43062,-19.13849 18.10519,-33.49357 37.24368,-32.06295c19.13849,1.43062 33.49357,18.10519 32.06295,37.24368c-1.43062,19.13849 -18.10519,33.49357 -37.24368,32.06295c-19.13849,-1.43062 -33.49357,-18.10519 -32.06295,-37.24368z" fill="#ffffff" stroke-width="7" stroke-linecap="butt"/><path d="M289.20796,97.77583l63.07403,4.71484" fill="none" stroke-width="7" stroke-linecap="round"/><path d="M288.72799,97.48926c0,0 1.60699,-22.35011 32.62824,-20.62518c29.52025,1.64147 30.42715,25.58932 30.42715,25.58932z" fill="#242424" stroke-width="0" stroke-linecap="butt"/><path d="M305.31347,110.7136v9.75" fill="none" stroke-width="7" stroke-linecap="round"/><path d="M324.03013,121.93027v-9.75" data-paper-data="{&quot;index&quot;:null}" fill="none" stroke-width="7" stroke-linecap="round"/><path d="M299.3,107.2l8.2,1.6" fill="none" stroke-width="5.5" stroke-linecap="round"/><path d="M306.9557,134.4992c0,0 11.65861,-4.91782 15.0839,0.18942" fill="none" stroke-width="5.5" stroke-linecap="round"/></g></g></svg>