<svg version="1.1" xmlns="http://www.w3.org/2000/svg" xmlns:xlink="http://www.w3.org/1999/xlink" width="1411.99549" height="1092.71772" viewBox="0,0,1411.99549,1092.71772"><g transform="translate(448.62613,363.35586)"><g data-paper-data="{&quot;isPaintingLayer&quot;:true}" fill-rule="nonzero" stroke="none" stroke-width="0" stroke-linecap="butt" stroke-linejoin="miter" stroke-miterlimit="10" stroke-dasharray="" stroke-dashoffset="0" style="mix-blend-mode: normal"><g><g><path d="M849.30931,167.8003l-60,-531.15616h54l60,531.15616z" fill="#1d82ca"/><path d="M795.30931,167.8003l-60,-531.15616h54l60,531.15616z" fill="#c9c9c9"/></g><g><path d="M741.30931,167.8003l-60,-531.15616h54l60,531.15616z" fill="#1d82ca"/><path d="M687.30931,167.8003l-60,-531.15616h54l60,531.15616z" fill="#c9c9c9"/></g><g><path d="M633.30931,167.8003l-60,-531.15616h54l60,531.15616z" fill="#1d82ca"/><path d="M579.30931,167.8003l-60,-531.15616h54l60,531.15616z" fill="#c9c9c9"/></g><g><path d="M525.30931,167.8003l-60,-531.15616h54l60,531.15616z" fill="#1d82ca"/><path d="M471.30931,167.8003l-60,-531.15616h54l60,531.15616z" fill="#c9c9c9"/></g><g><path d="M417.30931,167.8003l-60,-531.15616h54l60,531.15616z" fill="#1d82ca"/><path d="M363.30931,167.8003l-60,-531.15616h54l60,531.15616z" fill="#c9c9c9"/></g><g><path d="M309.30931,167.8003l-60,-531.15616h54l60,531.15616z" fill="#1d82ca"/><path d="M255.30931,167.8003l-60,-531.15616h54l60,531.15616z" fill="#c9c9c9"/></g></g><g><g><path d="M909.36937,697.83033l-60,-531.15616h54l60,531.15616z" fill="#1d82ca"/><path d="M855.36937,697.83033l-60,-531.15616h54l60,531.15616z" fill="#c9c9c9"/></g><g><path d="M801.36937,697.83033l-60,-531.15616h54l60,531.15616z" fill="#1d82ca"/><path d="M747.36937,697.83033l-60,-531.15616h54l60,531.15616z" fill="#c9c9c9"/></g><g><path d="M693.36937,697.83033l-60,-531.15616h54l60,531.15616z" fill="#1d82ca"/><path d="M639.36937,697.83033l-60,-531.15616h54l60,531.15616z" fill="#c9c9c9"/></g><g><path d="M585.36937,697.83033l-60,-531.15616h54l60,531.15616z" fill="#1d82ca"/><path d="M531.36937,697.83033l-60,-531.15616h54l60,531.15616z" fill="#c9c9c9"/></g><g><path d="M477.36937,697.83033l-60,-531.15616h54l60,531.15616z" fill="#1d82ca"/><path d="M423.36937,697.83033l-60,-531.15616h54l60,531.15616z" fill="#c9c9c9"/></g><g><path d="M369.36937,697.83033l-60,-531.15616h54l60,531.15616z" fill="#1d82ca"/><path d="M315.36937,697.83033l-60,-531.15616h54l60,531.15616z" fill="#c9c9c9"/></g></g><g><g><path d="M205.37387,199.33183l-60,-531.15615h54l60,531.15616z" fill="#1d82ca"/><path d="M151.37387,199.33183l-60,-531.15615h54l60,531.15616z" fill="#c9c9c9"/></g><g><path d="M97.37387,199.33183l-60,-531.15615h54l60,531.15616z" fill="#1d82ca"/><path d="M43.37387,199.33183l-60,-531.15615h54l60,531.15616z" fill="#c9c9c9"/></g><g><path d="M-10.62613,199.33183l-60,-531.15615h54l60,531.15616z" fill="#1d82ca"/><path d="M-64.62613,199.33183l-60,-531.15615h54l60,531.15616z" fill="#c9c9c9"/></g><g><path d="M-118.62613,199.33183l-60,-531.15615h54l60,531.15616z" fill="#1d82ca"/><path d="M-172.62613,199.33183l-60,-531.15615h54l60,531.15616z" fill="#c9c9c9"/></g><g><path d="M-226.62613,199.33183l-60,-531.15615h54l60,531.15616z" fill="#1d82ca"/><path d="M-280.62613,199.33183l-60,-531.15615h54l60,531.15616z" fill="#c9c9c9"/></g><g><path d="M-334.62613,199.33183l-60,-531.15615h54l60,531.15616z" fill="#1d82ca"/><path d="M-388.62613,199.33183l-60,-531.15615h54l60,531.15616z" fill="#c9c9c9"/></g></g><g><g><path d="M265.43393,729.36186l-60,-531.15615h54l60,531.15615z" fill="#1d82ca"/><path d="M211.43393,729.36186l-60,-531.15615h54l60,531.15615z" fill="#c9c9c9"/></g><g><path d="M157.43393,729.36186l-60,-531.15615h54l60,531.15615z" fill="#1d82ca"/><path d="M103.43393,729.36186l-60,-531.15615h54l60,531.15615z" fill="#c9c9c9"/></g><g><path d="M49.43393,729.36186l-60,-531.15615h54l60,531.15615z" fill="#1d82ca"/><path d="M-4.56607,729.36186l-60,-531.15615h54l60,531.15615z" fill="#c9c9c9"/></g><g><path d="M-58.56607,729.36186l-60,-531.15615h54l60,531.15615z" fill="#1d82ca"/><path d="M-112.56607,729.36186l-60,-531.15615h54l60,531.15615z" fill="#c9c9c9"/></g><g><path d="M-166.56607,729.36186l-60,-531.15615h54l60,531.15615z" fill="#1d82ca"/><path d="M-220.56607,729.36186l-60,-531.15615h54l60,531.15615z" fill="#c9c9c9"/></g><g><path d="M-274.56607,729.36186l-60,-531.15615h54l60,531.15615z" fill="#1d82ca"/><path d="M-328.56607,729.36186l-60,-531.15615h54l60,531.15615z" fill="#c9c9c9"/></g></g></g></g></svg>