<svg version="1.1" xmlns="http://www.w3.org/2000/svg" xmlns:xlink="http://www.w3.org/1999/xlink" width="212.41022" height="200.70833" viewBox="0,0,212.41022,200.70833"><defs><linearGradient x1="357.13011" y1="109.5266" x2="398.6736" y2="127.37004" gradientUnits="userSpaceOnUse" id="color-1"><stop offset="0" stop-color="#694b2f" stop-opacity="0.36863"/><stop offset="1" stop-color="#694b2f" stop-opacity="0.50196"/></linearGradient></defs><g transform="translate(-213.40625,-79.64584)"><g data-paper-data="{&quot;isPaintingLayer&quot;:true}" fill-rule="nonzero" stroke-linejoin="miter" stroke-miterlimit="10" stroke-dasharray="" stroke-dashoffset="0" style="mix-blend-mode: normal"><g><g fill="#000000" stroke="#000000"><g stroke-width="25" stroke-linecap="round"><path d="M225.90625,92.58621v175.26796"/><path d="M226.67537,92.14584h186.6411"/><path d="M413.31647,267.41381v-175.26796" data-paper-data="{&quot;index&quot;:null}"/><path d="M412.54735,267.85416h-186.6411" data-paper-data="{&quot;index&quot;:null}"/></g><path d="M230.31082,261.97898v-168.33022h183.78293v168.33022z" stroke-width="0" stroke-linecap="butt"/></g><g><g fill="none" stroke="#382312" stroke-width="15" stroke-linecap="round"><path d="M225.90625,92.58621v175.26796"/><path d="M226.67537,92.14584h186.6411"/><path d="M413.31647,267.41381v-175.26796" data-paper-data="{&quot;index&quot;:null}"/><path d="M412.54735,267.85416h-186.6411" data-paper-data="{&quot;index&quot;:null}"/></g><path d="M230.31082,261.97898v-168.33022h183.78293v168.33022z" fill="#382312" stroke="none" stroke-width="0" stroke-linecap="butt"/></g></g><g><g stroke-width="10"><g fill="#694b2f" stroke="#694b2f" stroke-linecap="round"><path d="M225.90625,92.58621v175.26796"/><path d="M226.67537,92.14584h186.6411"/><path d="M413.31647,267.41381v-175.26796" data-paper-data="{&quot;index&quot;:null}"/><path d="M412.54735,267.85416h-186.6411" data-paper-data="{&quot;index&quot;:null}"/></g><path d="M230.31082,261.97898v-168.33022h183.78293v168.33022z" fill="#382312" stroke="#382312" stroke-linecap="butt"/></g><g fill="#694b2f" stroke="#694b2f"><g stroke-width="10" stroke-linecap="round"><path d="M225.90625,92.58621v175.26796"/><path d="M226.67537,92.14584h186.6411"/><path d="M413.31647,267.41381v-175.26796" data-paper-data="{&quot;index&quot;:null}"/><path d="M412.54735,267.85416h-186.6411" data-paper-data="{&quot;index&quot;:null}"/></g><path d="M226.64416,268.97898l3.66667,-175.33022l179.98291,1.63958v170.26426z" stroke-width="0" stroke-linecap="butt"/></g></g><text transform="translate(225.16667,159.77461) scale(0.32977,0.32977)" font-size="40" xml:space="preserve" fill="#000000" fill-rule="nonzero" stroke="#1b0a00" stroke-width="2" stroke-linecap="butt" stroke-linejoin="miter" stroke-miterlimit="10" stroke-dasharray="" stroke-dashoffset="0" font-family="&quot;CooperBlack-Std&quot;, Marker" font-weight="normal" text-anchor="start" style="mix-blend-mode: normal"><tspan x="0" dy="0">Look at this little</tspan><tspan x="0" dy="46.150000000000006px">plush version of Zane</tspan><tspan x="0" dy="46.150000000000006px">(he bites)</tspan></text><text transform="translate(223.83333,266.33331) scale(0.5,0.5)" font-size="40" xml:space="preserve" fill="#000000" fill-rule="nonzero" stroke="#1b0a00" stroke-width="2" stroke-linecap="butt" stroke-linejoin="miter" stroke-miterlimit="10" stroke-dasharray="" stroke-dashoffset="0" font-family="&quot;CooperBlack-Std&quot;, Marker" font-weight="normal" text-anchor="start" style="mix-blend-mode: normal"><tspan x="0" dy="0">Max: 10</tspan></text><g stroke-linecap="butt" font-family="&quot;CooperBlack-Std&quot;, Marker" font-weight="normal" font-size="40" text-anchor="start"><text transform="translate(224.16168,111.01464) rotate(-0.79542) scale(0.5588,0.5588)" font-size="40" xml:space="preserve" fill="#1b0a00" fill-rule="nonzero" stroke="#1b0a00" stroke-width="3" stroke-linecap="butt" stroke-linejoin="miter" stroke-miterlimit="10" stroke-dasharray="" stroke-dashoffset="0" font-family="&quot;CooperBlack-Std&quot;, Marker" font-weight="normal" text-anchor="start" style="mix-blend-mode: normal"><tspan x="0" dy="0">Auto</tspan><tspan x="0" dy="48px">Clicker</tspan></text><text transform="translate(224.17608,110.80894) rotate(-0.79542) scale(0.5588,0.5588)" font-size="40" xml:space="preserve" fill="#000000" fill-rule="nonzero" stroke="none" stroke-width="1" stroke-linecap="butt" stroke-linejoin="miter" stroke-miterlimit="10" stroke-dasharray="" stroke-dashoffset="0" font-family="&quot;CooperBlack-Std&quot;, Marker" font-weight="normal" text-anchor="start" style="mix-blend-mode: normal"><tspan x="0" dy="0">Auto</tspan><tspan x="0" dy="48px">Clicker</tspan></text></g><g><g fill="#000000" stroke="#000000"><path d="M376.31573,113.00526l7.66194,12.11373" stroke-width="7" stroke-linecap="round"/><path d="M374.60924,126.44554l-2.45232,-20.01547l17.03382,10.79268l-9.74529,0.73069z" stroke-width="3" stroke-linecap="butt"/></g><g stroke="#ffffff"><path d="M376.31573,113.00526l7.66194,12.11374" fill="none" stroke-width="3.5" stroke-linecap="round"/><path d="M374.60924,126.44554l-2.45232,-20.01547l17.03382,10.79268l-9.74529,0.7307z" fill="#ffffff" stroke-width="0" stroke-linecap="butt"/></g></g><path d="M346.09621,128.51446l-7.34057,-12.62229" data-paper-data="{&quot;index&quot;:null}" fill="none" stroke="#242424" stroke-width="7" stroke-linecap="round"/><path d="M338.44263,117.3382l-7.97577,9.74966" fill="none" stroke="#242424" stroke-width="7" stroke-linecap="round"/><path d="M338.18888,114.4186l-0.2267,15.52933" fill="none" stroke="#242424" stroke-width="7" stroke-linecap="round"/><path d="M337.39541,130.40132l-7.82134,7.48128" fill="none" stroke="#242424" stroke-width="7" stroke-linecap="round"/><path d="M337.96129,130.30296l6.12281,8.92491" data-paper-data="{&quot;index&quot;:null}" fill="none" stroke="#242424" stroke-width="7" stroke-linecap="round"/><path d="M329.12066,133.63189l0.39673,4.02402" fill="none" stroke="#242424" stroke-width="7" stroke-linecap="round"/><path d="M344.02654,139.29951l0.39673,-4.02402" data-paper-data="{&quot;index&quot;:null}" fill="none" stroke="#242424" stroke-width="7" stroke-linecap="round"/><path d="M325.40665,105.71938c0.1209,-1.61744 0.82398,-3.10314 1.46067,-4.49701c0.36473,-0.79849 1.05206,-1.79219 1.54581,-2.49583c1.13267,-1.61418 2.34721,-2.77724 4.0969,-3.71059c0.85644,-0.45686 2.36954,-0.99879 3.27609,-1.27021c1.41409,-0.42338 2.26754,-0.43261 3.89045,-0.31129c2.43804,0.18224 4.19172,0.84065 6.04465,1.96508c0.9962,0.60454 1.87976,1.42892 2.70902,2.3013c0.66021,0.69453 1.31719,1.38831 1.74415,2.25082c0.39741,0.80281 0.72154,2.24956 0.96625,3.13766c0.39533,1.43475 0.93816,3.04586 0.82086,4.61506c-0.08514,1.13898 -0.02395,2.53622 -0.34332,3.56925c-0.61561,1.99128 -1.65355,3.52373 -3.3136,4.8337c-1.14698,0.90509 -2.08407,1.97034 -3.46993,2.60074c-0.80686,0.36703 -2.1671,0.48922 -3.04825,0.70006c-1.30667,0.31265 -2.68325,0.68669 -4.09481,0.58118c-1.54298,-0.11534 -3.02657,-0.35178 -4.31869,-0.97591c-1.27442,-0.61558 -2.36026,-1.61294 -3.4645,-2.58051c-0.72322,-0.63371 -1.66628,-1.1664 -2.21126,-1.92457c-0.62756,-0.87305 -0.94015,-1.90443 -1.34734,-2.90234c-0.29087,-0.71284 -0.47431,-1.44885 -0.68533,-2.20611c-0.33555,-1.20411 -0.35525,-2.37678 -0.2578,-3.68048z" fill="#ffffff" stroke="#242424" stroke-width="5" stroke-linecap="butt"/><path d="M351.19357,103.3547c0,0 -0.94113,0.29114 -2.95425,0.21126c-0.75158,-0.02982 -1.90903,-0.36783 -2.85216,-0.42144c-0.52131,-0.02963 -1.27625,-0.27149 -1.83355,-0.29897c-0.72829,-0.03591 -1.44126,0.2614 -2.21212,0.20933c-0.40249,-0.02719 -1.27474,-0.39539 -1.67804,-0.42334c-0.51011,-0.03536 -1.06141,0.01322 -1.56443,-0.02451c-0.58017,-0.04352 -1.91316,-0.36274 -2.45859,-0.41029c-0.70228,-0.06124 -1.47675,0.104 -2.08744,0.06025c-0.48846,-0.03499 -1.3197,-0.45098 -1.71781,-0.4811c-0.5243,-0.03966 -1.56243,-0.01778 -1.88792,-0.04211c-1.23665,-0.09244 -2.92051,-0.18558 -2.92051,-0.18558" fill="none" stroke="#242424" stroke-width="4.5" stroke-linecap="round"/><path d="M326.75771,101.56612c0,0 0.61572,-8.56345 12.50152,-7.90254c11.31069,0.62893 11.65817,9.80455 11.65817,9.80455z" fill="#242424" stroke="#242424" stroke-width="0" stroke-linecap="butt"/><path d="M334.49178,109.83234v-3.73572" fill="none" stroke="#242424" stroke-width="3" stroke-linecap="round"/><path d="M342.14839,110.24103v-3.73572" data-paper-data="{&quot;index&quot;:null}" fill="none" stroke="#242424" stroke-width="3" stroke-linecap="round"/><path d="M341.80436,113.3955c-1.46416,3.53718 -4.72668,3.06256 -6.5987,0.28984" data-paper-data="{&quot;index&quot;:null}" fill="none" stroke="#242424" stroke-width="3" stroke-linecap="round"/><path d="M356.64489,144.02265c0,0 -33.40112,4.39786 -34.28735,3.67129c-4.04375,-3.31525 -6.74221,-54.99673 -6.74221,-54.99673c0,0 20.14546,-6.23458 34.37295,-2.64461c15.41407,3.88938 54.8372,25.15471 54.8372,25.15471l-12.30377,24.32544z" fill="url(#color-1)" stroke="none" stroke-width="0" stroke-linecap="butt"/><text transform="translate(225.16667,217.11116) scale(0.39728,0.39728)" font-size="40" xml:space="preserve" fill="#000000" fill-rule="nonzero" stroke="#1b0a00" stroke-width="2" stroke-linecap="butt" stroke-linejoin="miter" stroke-miterlimit="10" stroke-dasharray="" stroke-dashoffset="0" font-family="&quot;CooperBlack-Std&quot;, Marker" font-weight="normal" text-anchor="start" style="mix-blend-mode: normal"><tspan x="0" dy="0">When it squeaks the</tspan><tspan x="0" dy="46.15px">score goes up</tspan></text></g></g></svg>