<svg version="1.1" xmlns="http://www.w3.org/2000/svg" xmlns:xlink="http://www.w3.org/1999/xlink" width="79.16467" height="200.72947" viewBox="0,0,79.16467,200.72947"><g transform="translate(-289.74207,-74.8678)"><g data-paper-data="{&quot;isPaintingLayer&quot;:true}" fill-rule="nonzero" stroke-linejoin="miter" stroke-miterlimit="10" stroke-dasharray="" stroke-dashoffset="0" style="mix-blend-mode: normal"><path d="M293.24207,256.63061l4.71477,2.16188c0,0 -1.1924,-27.47864 21.13264,-51.84763" fill="none" stroke="#242424" stroke-width="7" stroke-linecap="round"/><path d="M319.91766,207.81152c11.15199,23.92927 -8.13403,63.44763 -8.13403,63.44763l6.18143,0.83812" data-paper-data="{&quot;index&quot;:null}" fill="none" stroke="#242424" stroke-width="7" stroke-linecap="round"/><path d="M330.61535,148.33552l-10.8,61.24389" fill="none" stroke="#242424" stroke-width="7" stroke-linecap="round"/><path d="M296.00182,110.52904c1.43062,-19.13849 18.10519,-33.49357 37.24368,-32.06295c19.13849,1.43062 33.49357,18.10519 32.06295,37.24368c-1.43062,19.13849 -18.10519,33.49357 -37.24368,32.06295c-19.13849,-1.43062 -33.49357,-18.10519 -32.06295,-37.24368z" fill="#ffffff" stroke="#242424" stroke-width="7" stroke-linecap="butt"/><path d="M363.08199,104.89067c0,0 -20.16718,9.1805 -63.07403,-4.71484" fill="none" stroke="#242424" stroke-width="7" stroke-linecap="round"/><path d="M299.52799,99.88926c0,0 1.60699,-22.35011 32.62824,-20.62518c29.52025,1.64147 30.42715,25.58932 30.42715,25.58932c0,0 -15.20413,3.66132 -24.75916,2.90909c-11.20079,-0.8818 -38.29623,-7.87323 -38.29623,-7.87323z" fill="#242424" stroke="#242424" stroke-width="0" stroke-linecap="butt"/><path d="M329.12822,116.26947l3.85196,5.64816l-10.37334,-0.88561" fill="none" stroke="#242424" stroke-width="7" stroke-linecap="round"/><path d="M323.99938,117.40219c-1.62958,60.56599 8.69884,33.4 8.69884,33.4" fill="none" stroke="#242424" stroke-width="7" stroke-linecap="round"/><path d="M362.38019,121.23201l-10.37334,0.88561l3.85196,-5.64816" data-paper-data="{&quot;index&quot;:null}" fill="none" stroke="#242424" stroke-width="7" stroke-linecap="round"/><g data-paper-data="{&quot;index&quot;:null}" fill="#ffffff" stroke="#242424" stroke-linecap="round"><path d="M339.62756,139.6783c0,0 -13.83489,0.92175 -14.05945,0.01499c-3.73549,-15.08352 16.85063,-4.1485 16.85063,-4.1485" stroke-width="5"/><path d="M326.72111,136.27996l1.40681,-1.03931l1.07119,1.06997l1.19445,-0.77054" stroke-width="2.5"/></g><path d="M330.30179,149.73552c0,0 -27.67026,35.47936 -20.36783,-36.73333" data-paper-data="{&quot;index&quot;:null}" fill="none" stroke="#242424" stroke-width="7" stroke-linecap="round"/></g></g></svg>