<svg version="1.1" xmlns="http://www.w3.org/2000/svg" xmlns:xlink="http://www.w3.org/1999/xlink" width="384" height="298.47271" viewBox="0,0,384,298.47271"><g transform="translate(-128,-30.26365)"><g data-paper-data="{&quot;isPaintingLayer&quot;:true}" fill-rule="nonzero" stroke="#000000" stroke-linejoin="miter" stroke-miterlimit="10" stroke-dasharray="" stroke-dashoffset="0" style="mix-blend-mode: normal"><path d="M347.48202,199.64912l7.33333,-56.97722" fill="none" stroke-width="7" stroke-linecap="round"/><path d="M363.0673,181.6719c-97.59482,0.65099 -10.16551,-37 -10.16551,-37" data-paper-data="{&quot;index&quot;:null}" fill="none" stroke-width="7" stroke-linecap="round"/><path d="M319.47128,115.25921c-4.39057,-18.68292 7.19568,-37.38769 25.8786,-41.77826c18.68292,-4.39057 37.38769,7.19568 41.77826,25.8786c4.39057,18.68292 -7.19568,37.38769 -25.8786,41.77826c-18.68292,4.39057 -37.38769,-7.19568 -41.77826,-25.8786z" fill="#ffffff" stroke-width="7" stroke-linecap="butt"/><path d="M355.31347,109.24998v9.75" fill="none" stroke-width="7" stroke-linecap="round"/><path d="M372.56347,117.66665v-9.75" data-paper-data="{&quot;index&quot;:null}" fill="none" stroke-width="7" stroke-linecap="round"/><g><path d="M317.95424,103.44887l-11.40975,-52.52629c0,0 23.53182,-1.72406 34.64796,-4.41096c10.73323,-2.59435 30.94046,-11.4425 30.94046,-11.4425l11.36844,54.7355z" fill="#040404" stroke-width="0" stroke-linecap="butt"/><path d="M299.83281,108.93921l102.83194,-24.16595" fill="none" stroke-width="7" stroke-linecap="round"/><path d="M306.12888,49.39262l12.87303,54.77784" fill="none" stroke-width="7" stroke-linecap="round"/><path d="M383.37811,89.04177l-12.87303,-54.77784" data-paper-data="{&quot;index&quot;:null}" fill="none" stroke-width="7" stroke-linecap="round"/><path d="M370.38751,33.76365c0,0 -6.85946,5.77743 -31.66481,11.2221c-22.95334,5.03816 -32.71139,3.90658 -32.71139,3.90658" fill="none" stroke-width="7" stroke-linecap="round"/></g><path d="M379.26605,134.6719c0,0 -7.66269,5.13238 -7.64713,5.23399c15.36746,100.33785 -16.5207,2.43267 -16.5207,2.43267" fill="none" stroke-width="7" stroke-linecap="round"/><path d="M365.55728,131.22721l-13.94789,-2.46889" fill="none" stroke-width="7" stroke-linecap="round"/><path d="M155.5,326.23635v-128h331v128z" fill="#382312" stroke-width="5" stroke-linecap="butt"/><path d="M130.5,210.23635v-26h379v26z" fill="#2a1a0d" stroke-width="5" stroke-linecap="butt"/></g></g></svg>