<svg version="1.1" xmlns="http://www.w3.org/2000/svg" xmlns:xlink="http://www.w3.org/1999/xlink" width="384" height="300.80602" viewBox="0,0,384,300.80602"><g transform="translate(-128,-27.93033)"><g data-paper-data="{&quot;isPaintingLayer&quot;:true}" fill-rule="nonzero" stroke="#000000" stroke-linejoin="miter" stroke-miterlimit="10" stroke-dasharray="" stroke-dashoffset="0" style="mix-blend-mode: normal"><path d="M349.48202,140.33858l-2,59.31055" fill="none" stroke-width="7" stroke-linecap="round"/><path d="M363.0673,181.67191c-97.59482,0.65099 -15.49885,-39.33333 -15.49885,-39.33333" data-paper-data="{&quot;index&quot;:null}" fill="none" stroke-width="7" stroke-linecap="round"/><path d="M314.13795,112.92589c-4.39057,-18.68292 7.19568,-37.38769 25.8786,-41.77826c18.68292,-4.39057 37.38769,7.19568 41.77826,25.8786c4.39057,18.68292 -7.19568,37.38769 -25.8786,41.77826c-18.68292,4.39057 -37.38769,-7.19568 -41.77826,-25.8786z" fill="#ffffff" stroke-width="7" stroke-linecap="butt"/><path d="M343.98014,105.58332v9.75" fill="none" stroke-width="7" stroke-linecap="round"/><path d="M363.8968,113.33333v-9.75" data-paper-data="{&quot;index&quot;:null}" fill="none" stroke-width="7" stroke-linecap="round"/><g><path d="M312.62091,101.11555l-11.40975,-52.52629c0,0 23.53182,-1.72406 34.64796,-4.41096c10.73323,-2.59435 30.94046,-11.4425 30.94046,-11.4425l11.36844,54.7355z" fill="#040404" stroke-width="0" stroke-linecap="butt"/><path d="M397.33142,82.43994l-102.83194,24.16595" fill="none" stroke-width="7" stroke-linecap="round"/><path d="M313.66858,101.83714l-12.87303,-54.77784" fill="none" stroke-width="7" stroke-linecap="round"/><path d="M378.04478,86.70845l-12.87303,-54.77784" data-paper-data="{&quot;index&quot;:null}" fill="none" stroke-width="7" stroke-linecap="round"/><path d="M365.05418,31.43033c0,0 -6.85946,5.77743 -31.66481,11.2221c-22.95334,5.03816 -32.71139,3.90658 -32.71139,3.90658" fill="none" stroke-width="7" stroke-linecap="round"/></g><path d="M385.93272,138.33857c0,0 -8.32935,2.13238 -8.31379,2.23399c1.03413,99.00452 -27.85404,-0.56733 -27.85404,-0.56733" fill="none" stroke-width="7" stroke-linecap="round"/><path d="M155.5,326.23634v-128h331v128z" fill="#382312" stroke-width="5" stroke-linecap="butt"/><path d="M130.5,210.23636v-26h379v26z" fill="#2a1a0d" stroke-width="5" stroke-linecap="butt"/><path d="M364.38795,127.67787c-0.64738,2.23302 -4.77835,4.14832 -9.22679,4.27793c-4.44844,0.12962 -7.52982,-1.57554 -6.88245,-3.80855c0.64738,-2.23302 4.77835,-4.14832 9.22679,-4.27793c4.44844,-0.12962 7.52982,1.57554 6.88245,3.80855z" fill="none" stroke-width="5" stroke-linecap="butt"/></g></g></svg>