<svg version="1.1" xmlns="http://www.w3.org/2000/svg" xmlns:xlink="http://www.w3.org/1999/xlink" width="77.00669" height="190.08179" viewBox="0,0,77.00669,190.08179"><g transform="translate(-282.90182,-81.0678)"><g data-paper-data="{&quot;isPaintingLayer&quot;:true}" fill-rule="nonzero" stroke-linejoin="miter" stroke-miterlimit="10" stroke-dasharray="" stroke-dashoffset="0" style="mix-blend-mode: normal"><path d="M312.84207,258.23061l3.91477,-3.43812c0,0 -19.3924,-12.07864 2.33264,-47.84763" fill="none" stroke="#242424" stroke-width="7" stroke-linecap="round"/><path d="M329.16506,265.09727l-5.98143,1.36188c0,0 8.08602,-31.11836 -3.26597,-58.64763" data-paper-data="{&quot;index&quot;:null}" fill="none" stroke="#242424" stroke-width="7" stroke-linecap="round"/><path d="M321.01535,154.33552c0,0 3.57612,37.53007 -2.2,54.84389" fill="none" stroke="#242424" stroke-width="7" stroke-linecap="round"/><path d="M286.40182,116.72904c1.43062,-19.13849 18.10519,-33.49357 37.24368,-32.06295c19.13849,1.43062 33.49357,18.10519 32.06295,37.24368c-1.43062,19.13849 -18.10519,33.49357 -37.24368,32.06295c-19.13849,-1.43062 -33.49357,-18.10519 -32.06295,-37.24368z" fill="#ffffff" stroke="#242424" stroke-width="7" stroke-linecap="butt"/><path d="M290.40796,110.57583c19.10685,9.69534 63.07403,4.71484 63.07403,4.71484" fill="none" stroke="#242424" stroke-width="7" stroke-linecap="round"/><path d="M287.32799,109.88926c0,0 4.20699,-26.55011 35.22824,-24.82518c29.52025,1.64147 33.02715,30.18932 33.02715,30.18932c0,0 -28.20526,2.47768 -40.28197,1.52858c-10.43408,-0.82001 -27.97342,-6.89272 -27.97342,-6.89272z" fill="#242424" stroke="#242424" stroke-width="0" stroke-linecap="butt"/><path d="M306.2701,124.25803l3.11726,6.08457l-10.18182,-2.17277" fill="none" stroke="#242424" stroke-width="7" stroke-linecap="round"/><path d="M304.59938,125.20219c104.57042,20.96599 18.49884,31.6 18.49884,31.6" fill="none" stroke="#242424" stroke-width="7" stroke-linecap="round"/><path d="M310.66255,145.38638c0,0 11.31552,-5.55203 16.97376,-2.29359c0.34242,0.19719 -12.75249,2.88395 -12.75249,2.88395" fill="none" stroke="#242424" stroke-width="5" stroke-linecap="round"/><path d="M336.18019,131.03202l-10.37334,0.88561l3.85196,-5.64816" data-paper-data="{&quot;index&quot;:null}" fill="none" stroke="#242424" stroke-width="7" stroke-linecap="round"/><path d="M321.10179,154.33552c0,0 -31.87026,37.87936 -5.96783,-29.93333" data-paper-data="{&quot;index&quot;:null}" fill="none" stroke="#242424" stroke-width="7" stroke-linecap="round"/></g></g></svg>