<svg version="1.1" xmlns="http://www.w3.org/2000/svg" xmlns:xlink="http://www.w3.org/1999/xlink" width="76.40492" height="215.8628" viewBox="0,0,76.40492,215.8628"><g transform="translate(-281.70182,-72.6678)"><g data-paper-data="{&quot;isPaintingLayer&quot;:true}" fill-rule="nonzero" stroke-linejoin="miter" stroke-miterlimit="10" stroke-dasharray="" stroke-dashoffset="0" style="mix-blend-mode: normal"><path d="M311.65874,284.2306l3.8481,-5.57145c0,0 -8.54511,-29.35571 4.18264,-70.84763" fill="none" stroke="#242424" stroke-width="7" stroke-linecap="round"/><path d="M319.91765,207.81152c7.38253,35.19861 5.58264,73.04763 5.58264,73.04763l3.0481,4.17145" data-paper-data="{&quot;index&quot;:null}" fill="none" stroke="#242424" stroke-width="7" stroke-linecap="round"/><path d="M319.81535,209.57941v-63.64389" fill="none" stroke="#242424" stroke-width="7" stroke-linecap="round"/><path d="M306.16492,204.31409c-3.62764,-24.19627 12.93687,-58.17857 12.93687,-58.17857" data-paper-data="{&quot;index&quot;:null}" fill="none" stroke="#242424" stroke-width="7" stroke-linecap="round"/><path d="M285.20182,108.32904c1.43062,-19.13849 18.10519,-33.49357 37.24368,-32.06295c19.13849,1.43062 33.49357,18.10519 32.06295,37.24368c-1.43062,19.13849 -18.10519,33.49357 -37.24368,32.06295c-19.13849,-1.43062 -33.49357,-18.10519 -32.06295,-37.24368z" fill="#ffffff" stroke="#242424" stroke-width="7" stroke-linecap="butt"/><path d="M289.20796,97.77583l63.07403,4.71484" fill="none" stroke="#242424" stroke-width="7" stroke-linecap="round"/><path d="M288.72799,97.48926c0,0 1.60699,-22.35011 32.62824,-20.62518c29.52025,1.64147 30.42715,25.58932 30.42715,25.58932z" fill="#242424" stroke="#242424" stroke-width="0" stroke-linecap="butt"/><path d="M305.31347,120.4636v-6.46429" fill="none" stroke="#242424" stroke-width="7" stroke-linecap="round"/><path d="M324.17299,115.03741v6.60714" data-paper-data="{&quot;index&quot;:null}" fill="none" stroke="#242424" stroke-width="7" stroke-linecap="round"/><path d="M307.5,112.94285l-8.05714,-2.74286" fill="none" stroke="#242424" stroke-width="5.5" stroke-linecap="round"/><path d="M320.3,113.65714l8.2,-2.45714" data-paper-data="{&quot;index&quot;:null}" fill="none" stroke="#242424" stroke-width="5.5" stroke-linecap="round"/><g data-paper-data="{&quot;index&quot;:null}" fill="#ffffff" stroke="#242424" stroke-linecap="round"><path d="M305.61294,135.08075c0,0 21.54522,-11.33128 20.2483,1.98944c-0.07796,0.80079 -16.20696,1.30374 -16.20696,1.30374" stroke-width="5"/><path d="M319.4714,133.95057l1.53032,0.55076l1.02118,-1.02042l1.82868,0.762" stroke-width="1.5"/></g><path d="M302.67136,204.12091c0,-2.73841 2.21992,-4.95833 4.95833,-4.95833c2.73841,0 4.95833,2.21992 4.95833,4.95833c0,2.73841 -2.21992,4.95833 -4.95833,4.95833c-2.73841,0 -4.95833,-2.21992 -4.95833,-4.95833z" fill="#242424" stroke="#242424" stroke-width="0" stroke-linecap="butt"/><path d="M319.81464,146.46372c0,0 18.11129,33.18376 15.60133,57.52137" data-paper-data="{&quot;index&quot;:null}" fill="none" stroke="#242424" stroke-width="7" stroke-linecap="round"/><path d="M334.1721,208.81262c-2.73551,0.12606 -5.05527,-1.98932 -5.18133,-4.72483c-0.12606,-2.73551 1.98932,-5.05527 4.72483,-5.18133c2.73551,-0.12606 5.05526,1.98932 5.18132,4.72483c0.12606,2.73551 -1.98932,5.05527 -4.72482,5.18133z" data-paper-data="{&quot;index&quot;:null}" fill="#242424" stroke="#242424" stroke-width="0" stroke-linecap="butt"/></g></g></svg>