<svg version="1.1" xmlns="http://www.w3.org/2000/svg" xmlns:xlink="http://www.w3.org/1999/xlink" width="212.41022" height="200.70834" viewBox="0,0,212.41022,200.70834"><defs><linearGradient x1="339.90661" y1="123.18165" x2="415.22277" y2="123.18165" gradientUnits="userSpaceOnUse" id="color-1"><stop offset="0" stop-color="#694b2f" stop-opacity="0.36863"/><stop offset="1" stop-color="#694b2f" stop-opacity="0.50196"/></linearGradient></defs><g transform="translate(-213.40625,-79.64583)"><g data-paper-data="{&quot;isPaintingLayer&quot;:true}" fill-rule="nonzero" stroke-linejoin="miter" stroke-miterlimit="10" stroke-dasharray="" stroke-dashoffset="0" style="mix-blend-mode: normal"><g><g fill="#000000" stroke="#000000"><g stroke-width="25" stroke-linecap="round"><path d="M225.90625,92.5862v175.26796"/><path d="M226.67537,92.14583h186.6411"/><path d="M413.31647,92.14584v175.26796" data-paper-data="{&quot;index&quot;:null}"/><path d="M412.54735,267.85417h-186.6411" data-paper-data="{&quot;index&quot;:null}"/></g><path d="M230.31082,261.979v-168.33022h183.78293v168.33022z" stroke-width="0" stroke-linecap="butt"/></g><g><g fill="none" stroke="#382312" stroke-width="15" stroke-linecap="round"><path d="M225.90625,92.5862v175.26796"/><path d="M226.67537,92.14583h186.6411"/><path d="M413.31647,92.14584v175.26796" data-paper-data="{&quot;index&quot;:null}"/><path d="M412.54735,267.85417h-186.6411" data-paper-data="{&quot;index&quot;:null}"/></g><path d="M230.31082,261.979v-168.33022h183.78293v168.33022z" fill="#382312" stroke="none" stroke-width="0" stroke-linecap="butt"/></g></g><g><g stroke-width="10"><g fill="#694b2f" stroke="#694b2f" stroke-linecap="round"><path d="M225.90625,92.5862v175.26796"/><path d="M226.67537,92.14583h186.6411"/><path d="M413.31647,92.14584v175.26796" data-paper-data="{&quot;index&quot;:null}"/><path d="M412.54735,267.85417h-186.6411" data-paper-data="{&quot;index&quot;:null}"/></g><path d="M230.31082,261.979v-168.33022h183.78293v168.33022z" fill="#382312" stroke="#382312" stroke-linecap="butt"/></g><g fill="#694b2f" stroke="#694b2f"><g stroke-width="10" stroke-linecap="round"><path d="M225.90625,92.5862v175.26796"/><path d="M226.67537,92.14583h186.6411"/><path d="M413.31647,92.14584v175.26796" data-paper-data="{&quot;index&quot;:null}"/><path d="M412.54735,267.85417h-186.6411" data-paper-data="{&quot;index&quot;:null}"/></g><path d="M226.64416,268.979l3.66667,-175.33022l179.98291,1.63958v170.26426z" stroke-width="0" stroke-linecap="butt"/></g></g><g stroke-linecap="butt" font-family="&quot;CooperBlack-Std&quot;, Marker" font-weight="normal" font-size="40" text-anchor="start"><text transform="translate(224.14887,109.08269) rotate(2.02105) scale(0.53502,0.53502)" font-size="40" xml:space="preserve" fill="#1b0a00" fill-rule="nonzero" stroke="#1b0a00" stroke-width="3" stroke-linecap="butt" stroke-linejoin="miter" stroke-miterlimit="10" stroke-dasharray="" stroke-dashoffset="0" font-family="&quot;CooperBlack-Std&quot;, Marker" font-weight="normal" text-anchor="start" style="mix-blend-mode: normal"><tspan x="0" dy="0">Hit Per</tspan><tspan x="0" dy="48px">Click</tspan></text><text transform="translate(224.17232,108.88666) rotate(2.02105) scale(0.53502,0.53502)" font-size="40" xml:space="preserve" fill="#000000" fill-rule="nonzero" stroke="none" stroke-width="1" stroke-linecap="butt" stroke-linejoin="miter" stroke-miterlimit="10" stroke-dasharray="" stroke-dashoffset="0" font-family="&quot;CooperBlack-Std&quot;, Marker" font-weight="normal" text-anchor="start" style="mix-blend-mode: normal"><tspan x="0" dy="0">Hit Per</tspan><tspan x="0" dy="48px">Click</tspan></text></g><text transform="translate(225.16667,162.11115) scale(0.39728,0.39728)" font-size="40" xml:space="preserve" fill="#000000" fill-rule="nonzero" stroke="#1b0a00" stroke-width="2" stroke-linecap="butt" stroke-linejoin="miter" stroke-miterlimit="10" stroke-dasharray="" stroke-dashoffset="0" font-family="&quot;CooperBlack-Std&quot;, Marker" font-weight="normal" text-anchor="start" style="mix-blend-mode: normal"><tspan x="0" dy="0">what do you think</tspan><tspan x="0" dy="46.150000000000006px">it does? explode?</tspan><tspan x="0" dy="46.150000000000006px"> </tspan><tspan x="0" dy="46.150000000000006px">Changes score earned</tspan><tspan x="0" dy="46.150000000000006px">per click by 1</tspan></text><g stroke="#000000" stroke-width="4.5"><path d="M398.6654,135.28456l-17.11275,-8.47224l4.666,-5.94185l13.55171,6.70923z" data-paper-data="{&quot;index&quot;:null}" fill="#ff0000" stroke-linecap="butt"/><path d="M408.45876,121.47389c-3.12389,6.30984 -10.77146,8.89256 -17.08131,5.76866c-6.30984,-3.12391 -8.89256,-10.77146 -5.76866,-17.08131c3.12389,-6.30984 10.77146,-8.89256 17.08131,-5.76866c6.30984,3.12391 8.89256,10.77146 5.76866,17.08131z" data-paper-data="{&quot;index&quot;:null}" fill="#ff0000" stroke-linecap="butt"/><path d="M385.30662,111.76671c6.89295,-5.84516 8.98935,1.37141 8.98935,1.37141" data-paper-data="{&quot;index&quot;:null}" fill="none" stroke-linecap="round"/><path d="M396.06725,112.47421l-2.89673,2.38654" data-paper-data="{&quot;index&quot;:null}" fill="none" stroke-linecap="round"/><path d="M356.11009,131.27381l13.93748,-5.86594l4.29302,6.21671l-17.59989,7.40735z" data-paper-data="{&quot;index&quot;:null}" fill="#ff0000" stroke-linecap="butt"/><path d="M354.61715,107.95134c6.48946,-2.73126 13.96432,0.31538 16.69557,6.80484c2.73126,6.48946 -0.31537,13.96432 -6.80484,16.69557c-6.48946,2.73126 -13.96432,-0.31538 -16.69558,-6.80484c-2.73126,-6.48946 0.31538,-13.96432 6.80484,-16.69558z" data-paper-data="{&quot;index&quot;:null}" fill="#ff0000" stroke-linecap="butt"/><path d="M362.45944,117.19495c0,0 2.53479,-7.0745 9.05649,-0.81781" data-paper-data="{&quot;index&quot;:null}" fill="none" stroke-linecap="round"/><path d="M363.47716,118.98333l-2.745,-2.55961" data-paper-data="{&quot;index&quot;:null}" fill="none" stroke-linecap="round"/></g><path d="M339.90661,147.11023v-47.85714h75.31616v47.85714z" fill="url(#color-1)" stroke="none" stroke-width="0" stroke-linecap="butt"/><text transform="translate(223.83333,266.33333) scale(0.5,0.5)" font-size="40" xml:space="preserve" fill="#000000" fill-rule="nonzero" stroke="#1b0a00" stroke-width="2" stroke-linecap="butt" stroke-linejoin="miter" stroke-miterlimit="10" stroke-dasharray="" stroke-dashoffset="0" font-family="&quot;CooperBlack-Std&quot;, Marker" font-weight="normal" text-anchor="start" style="mix-blend-mode: normal"><tspan x="0" dy="0">Max: 10</tspan></text></g></g></svg>