<svg version="1.1" xmlns="http://www.w3.org/2000/svg" xmlns:xlink="http://www.w3.org/1999/xlink" width="160.625" height="112.0209" viewBox="0,0,160.625,112.0209"><defs><linearGradient x1="365.68394" y1="185.6096" x2="361.64353" y2="140.52515" gradientUnits="userSpaceOnUse" id="color-1"><stop offset="0" stop-color="#694b2f" stop-opacity="0.24706"/><stop offset="1" stop-color="#694b2f" stop-opacity="0.25882"/></linearGradient></defs><g transform="translate(-239.40625,-120.6666)"><g data-paper-data="{&quot;isPaintingLayer&quot;:true}" fill-rule="nonzero" stroke-linejoin="miter" stroke-miterlimit="10" stroke-dasharray="" stroke-dashoffset="0" style="mix-blend-mode: normal"><path d="M356.05721,132.1935c0,0 -2.66901,-6.05481 1.7638,-7.77232" fill="none" stroke="#4d3019" stroke-width="6.5" stroke-linecap="round"/><path d="M266.96011,124.33212c7.73217,-2.58203 7.88542,7.71363 7.88542,7.71363" fill="none" stroke="#4d3019" stroke-width="6.5" stroke-linecap="round"/><g><g fill="#000000" stroke="#000000"><g stroke-width="25" stroke-linecap="round"><path d="M251.90625,140.01394v80.17356"/><path d="M252.46285,139.8125h135.0684"/><path d="M387.53125,219.98606v-80.17356" data-paper-data="{&quot;index&quot;:null}"/><path d="M386.97465,220.1875h-135.0684" data-paper-data="{&quot;index&quot;:null}"/></g><path d="M255.09375,217.5v-77h133v77z" stroke-width="0" stroke-linecap="butt"/></g><g><g fill="none" stroke="#382312" stroke-width="15" stroke-linecap="round"><path d="M251.90625,140.01394v80.17356"/><path d="M252.46285,139.8125h135.0684"/><path d="M387.53125,219.98606v-80.17356" data-paper-data="{&quot;index&quot;:null}"/><path d="M386.97465,220.1875h-135.0684" data-paper-data="{&quot;index&quot;:null}"/></g><path d="M255.09375,217.5v-77h133v77z" fill="#382312" stroke="none" stroke-width="0" stroke-linecap="butt"/></g></g><g><g stroke-width="10"><g fill="#694b2f" stroke="#694b2f" stroke-linecap="round"><path d="M251.90625,140.01394v80.17356"/><path d="M252.46285,139.8125h135.0684"/><path d="M387.53125,219.98606v-80.17356" data-paper-data="{&quot;index&quot;:null}"/><path d="M386.97465,220.1875h-135.0684" data-paper-data="{&quot;index&quot;:null}"/></g><path d="M255.09375,217.5v-77h133v77z" fill="#382312" stroke="#382312" stroke-linecap="butt"/></g><g fill="#694b2f" stroke="#694b2f"><g stroke-width="10" stroke-linecap="round"><path d="M251.90625,140.01394v80.17356"/><path d="M252.46285,139.8125h135.0684"/><path d="M387.53125,219.98606v-80.17356" data-paper-data="{&quot;index&quot;:null}"/><path d="M386.97465,220.1875h-135.0684" data-paper-data="{&quot;index&quot;:null}"/></g><path d="M255.09375,217.5v-77l130.25,0.75v75.75z" stroke-width="0" stroke-linecap="butt"/></g></g><text transform="translate(250.24619,161.86912) rotate(-0.79542) scale(0.72791,0.72791)" font-size="40" xml:space="preserve" fill="#1b0a00" fill-rule="nonzero" stroke="#1b0a00" stroke-width="3" stroke-linecap="butt" stroke-linejoin="miter" stroke-miterlimit="10" stroke-dasharray="" stroke-dashoffset="0" font-family="&quot;CooperBlack-Std&quot;, Marker" font-weight="normal" text-anchor="start" style="mix-blend-mode: normal"><tspan x="0" dy="0">Steve</tspan><tspan x="0" dy="48px">Plush</tspan></text><text transform="translate(250.26495,161.60117) rotate(-0.79542) scale(0.72791,0.72791)" font-size="40" xml:space="preserve" fill="#000000" fill-rule="nonzero" stroke="none" stroke-width="1" stroke-linecap="butt" stroke-linejoin="miter" stroke-miterlimit="10" stroke-dasharray="" stroke-dashoffset="0" font-family="&quot;CooperBlack-Std&quot;, Marker" font-weight="normal" text-anchor="start" style="mix-blend-mode: normal"><tspan x="0" dy="0">Steve</tspan><tspan x="0" dy="48px">Plush</tspan></text><text transform="translate(343.30848,216.48452) rotate(2.57217) scale(0.44795,0.44795)" font-size="40" xml:space="preserve" fill="#1b0a00" fill-rule="nonzero" stroke="#1b0a00" stroke-width="3" stroke-linecap="butt" stroke-linejoin="miter" stroke-miterlimit="10" stroke-dasharray="" stroke-dashoffset="0" font-family="&quot;CooperBlack-Std&quot;, Marker" font-weight="normal" text-anchor="start" style="mix-blend-mode: normal"><tspan x="0" dy="0">$300</tspan></text><text transform="translate(343.3297,216.32059) rotate(2.57217) scale(0.44795,0.44795)" font-size="40" xml:space="preserve" fill="#000000" fill-rule="nonzero" stroke="none" stroke-width="1" stroke-linecap="butt" stroke-linejoin="miter" stroke-miterlimit="10" stroke-dasharray="" stroke-dashoffset="0" font-family="&quot;CooperBlack-Std&quot;, Marker" font-weight="normal" text-anchor="start" style="mix-blend-mode: normal"><tspan x="0" dy="0">$300</tspan></text><g stroke="#000000"><path d="M353.58736,170.81061l3.51266,-21.15648l20.6804,3.04684l-3.43523,21.94827z" fill="#0f0f0f" stroke-width="0" stroke-linecap="butt"/><path d="M347.62769,170.37647l32.92026,5.01461" fill="none" stroke-width="7" stroke-linecap="round"/><path d="M357.10758,149.49024l-3.30923,21.72468" fill="none" stroke-width="7" stroke-linecap="round"/><path d="M374.40752,174.35424l3.30923,-21.72468" data-paper-data="{&quot;index&quot;:null}" fill="none" stroke-width="7" stroke-linecap="round"/><path d="M377.74698,152.43115l-20.60917,-3.13931" fill="none" stroke-width="7" stroke-linecap="round"/></g><path d="M387.82903,185.26808l-44.29015,0.68304l-4.04041,-45.08445l44.29015,-0.68304z" fill="url(#color-1)" stroke="none" stroke-width="0" stroke-linecap="butt"/><path d="M358.40242,124.17229c9.2623,-1.69241 10.07045,27.06041 10.07045,27.06041" fill="none" stroke="#4d3019" stroke-width="6.5" stroke-linecap="round"/><path d="M261.72508,153.63789c-4.30552,-26.92256 5.07812,-29.2577 5.07812,-29.2577" fill="none" stroke="#4d3019" stroke-width="6.5" stroke-linecap="round"/><g stroke-linecap="butt"><path d="M258.99796,213.17301l1.72769,-59.01591l108.44802,3.17481l-1.72769,59.01591z" fill="#694b2f" stroke="#382312" stroke-width="18.5"/><path d="M258.82983,213.16808l1.72769,-59.01591l108.44802,3.17481l-1.72769,59.01591z" fill="#694b2f" stroke="#694b2f" stroke-width="10"/><g fill="#525c69"><path d="M258.31267,156.10584c0.06795,-2.32148 2.00498,-4.14832 4.32647,-4.08036c2.32148,0.06795 4.14832,2.00498 4.08036,4.32647c-0.06795,2.32148 -2.00498,4.14832 -4.32647,4.08036c-2.32148,-0.06795 -4.14832,-2.00498 -4.08036,-4.32647z" stroke="#382312" stroke-width="3.5"/><path d="M258.31267,156.10584c0.06795,-2.32148 2.00498,-4.14832 4.32647,-4.08036c2.32148,0.06795 4.14832,2.00498 4.08036,4.32647c-0.06795,2.32148 -2.00498,4.14832 -4.32647,4.08036c-2.32148,-0.06795 -4.14832,-2.00498 -4.08036,-4.32647z" stroke="none" stroke-width="0.5"/></g><g data-paper-data="{&quot;index&quot;:null}" fill="#525c69"><path d="M366.80577,163.48898c-2.32148,-0.06795 -4.14832,-2.00498 -4.08036,-4.32647c0.06795,-2.32148 2.00498,-4.14832 4.32647,-4.08036c2.32148,0.06795 4.14832,2.00498 4.08036,4.32647c-0.06795,2.32148 -2.00498,4.14832 -4.32647,4.08036z" stroke="#382312" stroke-width="3.5"/><path d="M366.80577,163.48898c-2.32148,-0.06795 -4.14832,-2.00498 -4.08036,-4.32647c0.06795,-2.32148 2.00498,-4.14832 4.32647,-4.08036c2.32148,0.06795 4.14832,2.00498 4.08036,4.32647c-0.06795,2.32148 -2.00498,4.14832 -4.32647,4.08036z" stroke="none" stroke-width="0.5"/></g><g data-paper-data="{&quot;index&quot;:null}" fill="#525c69"><path d="M261.02959,207.0061c2.32148,0.06795 4.14832,2.00498 4.08036,4.32647c-0.06795,2.32148 -2.00498,4.14832 -4.32647,4.08036c-2.32148,-0.06795 -4.14832,-2.00498 -4.08036,-4.32647c0.06795,-2.32148 2.00498,-4.14832 4.32647,-4.08036z" stroke="#382312" stroke-width="3.5"/><path d="M261.02959,207.0061c2.32148,0.06795 4.14832,2.00498 4.08036,4.32647c-0.06795,2.32148 -2.00498,4.14832 -4.32647,4.08036c-2.32148,-0.06795 -4.14832,-2.00498 -4.08036,-4.32647c0.06795,-2.32148 2.00498,-4.14832 4.32647,-4.08036z" stroke="none" stroke-width="0.5"/></g><g data-paper-data="{&quot;index&quot;:null}" fill="#525c69"><path d="M369.52269,214.38925c-0.06795,2.32148 -2.00498,4.14832 -4.32647,4.08036c-2.32148,-0.06795 -4.14832,-2.00498 -4.08036,-4.32647c0.06795,-2.32148 2.00498,-4.14832 4.32647,-4.08036c2.32148,0.06795 4.14832,2.00498 4.08036,4.32647z" stroke="#382312" stroke-width="3.5"/><path d="M369.52269,214.38925c-0.06795,2.32148 -2.00498,4.14832 -4.32647,4.08036c-2.32148,-0.06795 -4.14832,-2.00498 -4.08036,-4.32647c0.06795,-2.32148 2.00498,-4.14832 4.32647,-4.08036c2.32148,0.06795 4.14832,2.00498 4.08036,4.32647z" stroke="none" stroke-width="0.5"/></g><text transform="translate(270.43936,184.08242) rotate(-5.5358) scale(0.508,0.508)" font-size="40" xml:space="preserve" fill="#000000" fill-rule="nonzero" stroke="#000000" stroke-width="2" stroke-linecap="butt" stroke-linejoin="miter" stroke-miterlimit="10" stroke-dasharray="" stroke-dashoffset="0" font-family="&quot;CooperBlack-Std&quot;, Marker" font-weight="normal" text-anchor="start" style="mix-blend-mode: normal"><tspan x="0" dy="0">  SOLD</tspan><tspan x="0" dy="46.15px"> OUT!</tspan></text></g></g></g></svg>