<svg version="1.1" xmlns="http://www.w3.org/2000/svg" xmlns:xlink="http://www.w3.org/1999/xlink" width="101.56129" height="143.96317" viewBox="0,0,101.56129,143.96317"><g transform="translate(-268.90551,-94.25303)"><g data-paper-data="{&quot;isPaintingLayer&quot;:true}" fill-rule="nonzero" stroke-linejoin="miter" stroke-miterlimit="10" stroke-dasharray="" stroke-dashoffset="0" style="mix-blend-mode: normal"><path d="M336.81103,207.56259l-16.6097,-28.56077" data-paper-data="{&quot;index&quot;:null}" fill="#000000" stroke="#000000" stroke-width="12.5" stroke-linecap="round"/><path d="M319.49307,182.27377l-18.04698,22.0608" fill="#000000" stroke="#000000" stroke-width="12.5" stroke-linecap="round"/><path d="M318.91889,175.66749l-0.51297,35.13861" fill="#000000" stroke="#000000" stroke-width="12.5" stroke-linecap="round"/><path d="M317.1235,211.83205l-17.69755,16.92809" fill="#000000" stroke="#000000" stroke-width="12.5" stroke-linecap="round"/><path d="M318.40393,211.60945l13.85425,20.19463" data-paper-data="{&quot;index&quot;:null}" fill="#000000" stroke="#000000" stroke-width="12.5" stroke-linecap="round"/><path d="M299.2977,228.24716l-0.8977,-9.10526" fill="#000000" stroke="#000000" stroke-width="12.5" stroke-linecap="round"/><path d="M333.02563,222.86096l-0.8977,9.10525" data-paper-data="{&quot;index&quot;:null}" fill="#000000" stroke="#000000" stroke-width="12.5" stroke-linecap="round"/><path d="M289.99622,155.98357c0.27357,-3.65983 1.86444,-7.02156 3.30509,-10.1755c0.82528,-1.80676 2.38053,-4.05523 3.49774,-5.64738c2.56292,-3.65244 5.31109,-6.28413 9.27017,-8.39604c1.93789,-1.03374 5.36162,-2.25998 7.41289,-2.87413c3.1997,-0.95799 5.13081,-0.97887 8.80303,-0.70436c5.51662,0.41237 9.48472,1.90216 13.67738,4.44644c2.25413,1.3679 4.25337,3.23326 6.12977,5.2072c1.49388,1.57154 2.98044,3.14136 3.94654,5.09298c0.89923,1.81653 1.63264,5.09013 2.18635,7.09967c0.89453,3.24645 2.12279,6.89195 1.85737,10.44262c-0.19265,2.57721 -0.0542,5.73876 -0.77684,8.07623c-1.39296,4.50572 -3.74152,7.97324 -7.49777,10.93733c-2.59529,2.04797 -4.71568,4.45833 -7.85151,5.88476c-1.82571,0.83048 -4.90355,1.10697 -6.89736,1.58405c-2.95664,0.70745 -6.07146,1.55379 -9.26544,1.31504c-3.49134,-0.26098 -6.84829,-0.79598 -9.772,-2.20822c-2.88366,-1.39289 -5.34063,-3.64964 -7.83922,-5.83898c-1.63645,-1.43391 -3.77034,-2.63925 -5.00348,-4.35478c-1.42,-1.97548 -2.12731,-4.30921 -3.04866,-6.56719c-0.65815,-1.61295 -1.07324,-3.27835 -1.55072,-4.99182c-0.75925,-2.72458 -0.80384,-5.37801 -0.58333,-8.32792z" fill="#000000" stroke="#000000" stroke-width="7" stroke-linecap="butt"/><g stroke="#000000"><path d="M289.3941,147.69019l4.12983,-49.09983l59.37472,3.76995l-3.69311,50.90488z" fill="#0f0f0f" stroke-width="0" stroke-linecap="butt"/><path d="M272.40551,147.62248l94.56129,6.3787" fill="none" stroke-width="7" stroke-linecap="round"/><path d="M290.10243,148.5852l3.39789,-50.37212" fill="none" stroke-width="7" stroke-linecap="round"/><path d="M352.69882,102.20636l-3.39789,50.37212" data-paper-data="{&quot;index&quot;:null}" fill="none" stroke-width="7" stroke-linecap="round"/><path d="M352.72985,101.74631l-59.1985,-3.99328" fill="none" stroke-width="7" stroke-linecap="round"/></g><path d="M314.93125,164.7056c-0.19606,5.75135 -3.61866,10.3025 -7.64462,10.16526c-4.02595,-0.13724 -7.1307,-4.91089 -6.93464,-10.66224c0.19606,-5.75135 3.61866,-10.3025 7.64462,-10.16526c4.02595,0.13724 7.1307,4.91089 6.93464,10.66224z" fill="#ffffff" stroke="none" stroke-width="0" stroke-linecap="butt"/><path d="M329.5467,154.77797c4.02594,0.13724 7.1307,4.9109 6.93464,10.66224c-0.19606,5.75135 -3.61866,10.30249 -7.64462,10.16525c-4.02594,-0.13724 -7.1307,-4.91089 -6.93464,-10.66223c0.19606,-5.75135 3.61867,-10.3025 7.64462,-10.16526z" data-paper-data="{&quot;index&quot;:null}" fill="#ffffff" stroke="none" stroke-width="0" stroke-linecap="butt"/></g></g></svg>