<svg version="1.1" xmlns="http://www.w3.org/2000/svg" xmlns:xlink="http://www.w3.org/1999/xlink" width="160.625" height="112.12051" viewBox="0,0,160.625,112.12051"><defs><linearGradient x1="342.46344" y1="149.85994" x2="384.00693" y2="167.70338" gradientUnits="userSpaceOnUse" id="color-1"><stop offset="0" stop-color="#694b2f" stop-opacity="0.36863"/><stop offset="1" stop-color="#694b2f" stop-opacity="0.50196"/></linearGradient></defs><g transform="translate(-239.40625,-120.567)"><g data-paper-data="{&quot;isPaintingLayer&quot;:true}" fill-rule="nonzero" stroke-linejoin="miter" stroke-miterlimit="10" stroke-dasharray="" stroke-dashoffset="0" style="mix-blend-mode: normal"><path d="M357.53325,131.58279c0,0 -1.52851,-6.43801 3.14203,-7.32445" fill="none" stroke="#4d3019" stroke-width="6.5" stroke-linecap="round"/><path d="M270.89398,123.90617c8.07189,-1.13923 6.35831,9.01398 6.35831,9.01398" fill="none" stroke="#4d3019" stroke-width="6.5" stroke-linecap="round"/><g><g fill="#000000" stroke="#000000"><g stroke-width="25" stroke-linecap="round"><path d="M251.90625,140.01395v80.17356"/><path d="M252.46285,139.8125h135.0684"/><path d="M387.53125,219.98607v-80.17356" data-paper-data="{&quot;index&quot;:null}"/><path d="M386.97465,220.18751h-135.0684" data-paper-data="{&quot;index&quot;:null}"/></g><path d="M255.09375,217.50001v-77h133v77z" stroke-width="0" stroke-linecap="butt"/></g><g><g fill="none" stroke="#382312" stroke-width="15" stroke-linecap="round"><path d="M251.90625,140.01395v80.17356"/><path d="M252.46285,139.8125h135.0684"/><path d="M387.53125,219.98607v-80.17356" data-paper-data="{&quot;index&quot;:null}"/><path d="M386.97465,220.18751h-135.0684" data-paper-data="{&quot;index&quot;:null}"/></g><path d="M255.09375,217.50001v-77h133v77z" fill="#382312" stroke="none" stroke-width="0" stroke-linecap="butt"/></g></g><g><g stroke-width="10"><g fill="#694b2f" stroke="#694b2f" stroke-linecap="round"><path d="M251.90625,140.01395v80.17356"/><path d="M252.46285,139.8125h135.0684"/><path d="M387.53125,219.98607v-80.17356" data-paper-data="{&quot;index&quot;:null}"/><path d="M386.97465,220.18751h-135.0684" data-paper-data="{&quot;index&quot;:null}"/></g><path d="M255.09375,217.50001v-77h133v77z" fill="#382312" stroke="#382312" stroke-linecap="butt"/></g><g fill="#694b2f" stroke="#694b2f"><g stroke-width="10" stroke-linecap="round"><path d="M251.90625,140.01395v80.17356"/><path d="M252.46285,139.8125h135.0684"/><path d="M387.53125,219.98607v-80.17356" data-paper-data="{&quot;index&quot;:null}"/><path d="M386.97465,220.18751h-135.0684" data-paper-data="{&quot;index&quot;:null}"/></g><path d="M255.09375,217.50001v-77l130.25,0.75v75.75z" stroke-width="0" stroke-linecap="butt"/></g></g><text transform="translate(250.24619,161.86913) rotate(-0.79542) scale(0.72791,0.72791)" font-size="40" xml:space="preserve" fill="#1b0a00" fill-rule="nonzero" stroke="#1b0a00" stroke-width="3" stroke-linecap="butt" stroke-linejoin="miter" stroke-miterlimit="10" stroke-dasharray="" stroke-dashoffset="0" font-family="&quot;CooperBlack-Std&quot;, Marker" font-weight="normal" text-anchor="start" style="mix-blend-mode: normal"><tspan x="0" dy="0">Auto</tspan><tspan x="0" dy="48px">Clicker</tspan></text><text transform="translate(250.26495,161.60118) rotate(-0.79542) scale(0.72791,0.72791)" font-size="40" xml:space="preserve" fill="#000000" fill-rule="nonzero" stroke="none" stroke-width="1" stroke-linecap="butt" stroke-linejoin="miter" stroke-miterlimit="10" stroke-dasharray="" stroke-dashoffset="0" font-family="&quot;CooperBlack-Std&quot;, Marker" font-weight="normal" text-anchor="start" style="mix-blend-mode: normal"><tspan x="0" dy="0">Auto</tspan><tspan x="0" dy="48px">Clicker</tspan></text><text transform="translate(343.87609,218.77406) rotate(-3.24737) scale(0.44795,0.44795)" font-size="40" xml:space="preserve" fill="#1b0a00" fill-rule="nonzero" stroke="#1b0a00" stroke-width="3" stroke-linecap="butt" stroke-linejoin="miter" stroke-miterlimit="10" stroke-dasharray="" stroke-dashoffset="0" font-family="&quot;CooperBlack-Std&quot;, Marker" font-weight="normal" text-anchor="start" style="mix-blend-mode: normal"><tspan x="0" dy="0">$150</tspan></text><text transform="translate(343.88058,218.60882) rotate(-3.24737) scale(0.44795,0.44795)" font-size="40" xml:space="preserve" fill="#000000" fill-rule="nonzero" stroke="none" stroke-width="1" stroke-linecap="butt" stroke-linejoin="miter" stroke-miterlimit="10" stroke-dasharray="" stroke-dashoffset="0" font-family="&quot;CooperBlack-Std&quot;, Marker" font-weight="normal" text-anchor="start" style="mix-blend-mode: normal"><tspan x="0" dy="0">$150</tspan></text><g><g fill="#000000" stroke="#000000"><path d="M361.64906,153.3386l7.66194,12.11373" stroke-width="7" stroke-linecap="round"/><path d="M359.94257,166.77888l-2.45232,-20.01547l17.03382,10.79268l-9.74529,0.73069z" stroke-width="3" stroke-linecap="butt"/></g><g stroke="#ffffff"><path d="M361.64906,153.3386l7.66194,12.11374" fill="none" stroke-width="3.5" stroke-linecap="round"/><path d="M359.94257,166.77888l-2.45232,-20.01547l17.03382,10.79268l-9.74529,0.7307z" fill="#ffffff" stroke-width="0" stroke-linecap="butt"/></g></g><path d="M336.31155,162.02266l12.30377,-24.32544l41.54349,17.84344l-12.30377,24.32544z" fill="url(#color-1)" stroke="none" stroke-width="0" stroke-linecap="butt"/><path d="M361.29215,124.11884c9.41564,0.01275 5.00397,28.4366 5.00397,28.4366" fill="none" stroke="#4d3019" stroke-width="6.5" stroke-linecap="round"/><path d="M260.4389,151.77955c0.6407,-27.25713 10.29205,-27.85451 10.29205,-27.85451" fill="none" stroke="#4d3019" stroke-width="6.5" stroke-linecap="round"/><g stroke-linecap="butt"><path d="M257.78965,209.38883l2.78284,-58.97557l108.3739,5.11377l-2.78284,58.97557z" fill="#694b2f" stroke="#382312" stroke-width="18.5"/><path d="M257.62163,209.3809l2.78284,-58.97557l108.3739,5.11377l-2.78284,58.97557z" fill="#694b2f" stroke="#694b2f" stroke-width="10"/><g fill="#525c69"><path d="M258.12505,152.31853c0.10946,-2.31989 2.07885,-4.1118 4.39875,-4.00233c2.31989,0.10946 4.1118,2.07885 4.00233,4.39875c-0.10946,2.31989 -2.07885,4.1118 -4.39875,4.00233c-2.31989,-0.10946 -4.1118,-2.07885 -4.00233,-4.39875z" stroke="#382312" stroke-width="3.5"/><path d="M258.12505,152.31853c0.10946,-2.31989 2.07885,-4.1118 4.39875,-4.00233c2.31989,0.10946 4.1118,2.07885 4.00233,4.39875c-0.10946,2.31989 -2.07885,4.1118 -4.39875,4.00233c-2.31989,-0.10946 -4.1118,-2.07885 -4.00233,-4.39875z" stroke="none" stroke-width="0.5"/></g><g data-paper-data="{&quot;index&quot;:null}" fill="#525c69"><path d="M366.46876,161.64076c-2.31989,-0.10946 -4.1118,-2.07885 -4.00233,-4.39875c0.10946,-2.31989 2.07885,-4.1118 4.39875,-4.00233c2.31989,0.10946 4.1118,2.07885 4.00233,4.39875c-0.10946,2.31989 -2.07885,4.1118 -4.39875,4.00233z" stroke="#382312" stroke-width="3.5"/><path d="M366.46876,161.64076c-2.31989,-0.10946 -4.1118,-2.07885 -4.00233,-4.39875c0.10946,-2.31989 2.07885,-4.1118 4.39875,-4.00233c2.31989,0.10946 4.1118,2.07885 4.00233,4.39875c-0.10946,2.31989 -2.07885,4.1118 -4.39875,4.00233z" stroke="none" stroke-width="0.5"/></g><g data-paper-data="{&quot;index&quot;:null}" fill="#525c69"><path d="M259.93124,203.25924c2.31989,0.10946 4.1118,2.07885 4.00233,4.39875c-0.10946,2.31989 -2.07885,4.1118 -4.39875,4.00233c-2.31989,-0.10946 -4.1118,-2.07885 -4.00233,-4.39875c0.10946,-2.31989 2.07885,-4.1118 4.39875,-4.00233z" stroke="#382312" stroke-width="3.5"/><path d="M259.93124,203.25924c2.31989,0.10946 4.1118,2.07885 4.00233,4.39875c-0.10946,2.31989 -2.07885,4.1118 -4.39875,4.00233c-2.31989,-0.10946 -4.1118,-2.07885 -4.00233,-4.39875c0.10946,-2.31989 2.07885,-4.1118 4.39875,-4.00233z" stroke="none" stroke-width="0.5"/></g><g data-paper-data="{&quot;index&quot;:null}" fill="#525c69"><path d="M368.27495,212.58148c-0.10946,2.31989 -2.07885,4.1118 -4.39875,4.00233c-2.31989,-0.10946 -4.1118,-2.07885 -4.00233,-4.39875c0.10946,-2.31989 2.07885,-4.1118 4.39875,-4.00233c2.31989,0.10946 4.1118,2.07885 4.00233,4.39875z" stroke="#382312" stroke-width="3.5"/><path d="M368.27495,212.58148c-0.10946,2.31989 -2.07885,4.1118 -4.39875,4.00233c-2.31989,-0.10946 -4.1118,-2.07885 -4.00233,-4.39875c0.10946,-2.31989 2.07885,-4.1118 4.39875,-4.00233c2.31989,0.10946 4.1118,2.07885 4.00233,4.39875z" stroke="none" stroke-width="0.5"/></g><text transform="translate(269.74947,180.50751) rotate(-4.51107) scale(0.508,0.508)" font-size="40" xml:space="preserve" fill="#000000" fill-rule="nonzero" stroke="#000000" stroke-width="2" stroke-linecap="butt" stroke-linejoin="miter" stroke-miterlimit="10" stroke-dasharray="" stroke-dashoffset="0" font-family="&quot;CooperBlack-Std&quot;, Marker" font-weight="normal" text-anchor="start" style="mix-blend-mode: normal"><tspan x="0" dy="0">SOLD</tspan><tspan x="0" dy="46.15px">      OUT!</tspan></text></g></g></g></svg>