<svg version="1.1" xmlns="http://www.w3.org/2000/svg" xmlns:xlink="http://www.w3.org/1999/xlink" width="98.07278" height="204.72947" viewBox="0,0,98.07278,204.72947"><g transform="translate(-260.03396,-72.66781)"><g data-paper-data="{&quot;isPaintingLayer&quot;:true}" fill-rule="nonzero" stroke="#242424" stroke-linejoin="miter" stroke-miterlimit="10" stroke-dasharray="" stroke-dashoffset="0" style="mix-blend-mode: normal"><path d="M319.08948,206.94486c-49.72504,16.16899 -12.33264,48.04763 -12.33264,48.04763l-3.91477,3.43812" fill="none" stroke-width="7" stroke-linecap="round"/><path d="M331.96506,273.89727l-6.18143,-0.83812c0,0 5.28602,-41.31836 -5.86597,-65.24763" data-paper-data="{&quot;index&quot;:null}" fill="none" stroke-width="7" stroke-linecap="round"/><path d="M319.81535,145.93552v63.64389" fill="none" stroke-width="7" stroke-linecap="round"/><path d="M319.90179,145.93552c0,0 -23.67026,47.47936 -56.36783,-0.93333" data-paper-data="{&quot;index&quot;:null}" fill="none" stroke-width="7" stroke-linecap="round"/><path d="M285.20182,108.32904c1.43062,-19.13849 18.10519,-33.49357 37.24368,-32.06295c19.13849,1.43062 33.49357,18.10519 32.06295,37.24368c-1.43062,19.13849 -18.10519,33.49357 -37.24368,32.06295c-19.13849,-1.43062 -33.49357,-18.10519 -32.06295,-37.24368z" fill="#ffffff" stroke-width="7" stroke-linecap="butt"/><path d="M289.20796,97.77583l63.07403,4.71484" fill="none" stroke-width="7" stroke-linecap="round"/><path d="M288.72799,97.48926c0,0 1.60699,-22.35011 32.62824,-20.62518c29.52025,1.64147 30.42715,25.58932 30.42715,25.58932z" fill="#242424" stroke-width="0" stroke-linecap="butt"/><path d="M305.32822,113.26947l3.85196,5.64816l-10.37334,-0.88561" fill="none" stroke-width="7" stroke-linecap="round"/><path d="M327.4968,119.93027v-9.75" data-paper-data="{&quot;index&quot;:null}" fill="none" stroke-width="7" stroke-linecap="round"/><path d="M321.89822,148.40219c0,0 46.27158,43.96599 18.10116,-23" fill="none" stroke-width="7" stroke-linecap="round"/><path d="M313.72741,133.75191c0,0 12.10949,-11.31669 17.11382,2.25716c0.30285,0.82146 -13.05986,2.00355 -13.05986,2.00355" fill="none" stroke-width="5" stroke-linecap="round"/></g></g></svg>