<svg version="1.1" xmlns="http://www.w3.org/2000/svg" xmlns:xlink="http://www.w3.org/1999/xlink" width="78.40994" height="173.71284" viewBox="0,0,78.40994,173.71284"><g transform="translate(-277.36198,-79.33596)"><g data-paper-data="{&quot;isPaintingLayer&quot;:true}" fill-rule="nonzero" stroke-linejoin="miter" stroke-miterlimit="10" stroke-dasharray="" stroke-dashoffset="0" style="mix-blend-mode: normal"><path d="M308.03815,200.41741c-48.87221,-49.11923 -16.91178,18.87974 -16.91178,18.87974l-5.2481,1.57145" fill="none" stroke="#242424" stroke-width="7" stroke-linecap="round"/><path d="M306.67541,249.5488l-5.2481,-1.57145l7.28714,-48.68026" data-paper-data="{&quot;index&quot;:null}" fill="none" stroke="#242424" stroke-width="7" stroke-linecap="round"/><path d="M319.81535,145.93552c0,0 6.40633,25.55394 -11.2032,54.2332" fill="none" stroke="#242424" stroke-width="7" stroke-linecap="round"/><path d="M320.99448,148.51503c0,0 43.19309,33.18511 -9.29259,40.4346" fill="none" stroke="#242424" stroke-width="7" stroke-linecap="round"/><path d="M318.33334,147.72804c0,0 -51.05392,35.01987 3.47798,34.83852" data-paper-data="{&quot;index&quot;:null}" fill="none" stroke="#242424" stroke-width="7" stroke-linecap="round"/><path d="M282.77769,116.9466c0.35317,-19.18864 16.19495,-34.45781 35.38359,-34.10464c19.18864,0.35317 34.45781,16.19495 34.10464,35.38359c-0.35317,19.18864 -16.19495,34.45781 -35.38359,34.10464c-19.18864,-0.35317 -34.45781,-16.19495 -34.10464,-35.38359z" fill="#ffffff" stroke="#242424" stroke-width="7" stroke-linecap="butt"/><path d="M286.18463,106.185l63.23929,1.16394" fill="none" stroke="#242424" stroke-width="7" stroke-linecap="round"/><path d="M285.68932,105.92584c0,0 0.34884,-22.40509 31.418,-22.42564c29.56585,-0.01955 31.81669,23.83953 31.81669,23.83953z" fill="#242424" stroke="#242424" stroke-width="0" stroke-linecap="butt"/><path d="M304.52475,140.91912l23.53994,-4.92642c0,0 15.12672,22.18653 -13.55067,8.92213" fill="#ffffff" stroke="#242424" stroke-width="5.5" stroke-linecap="round"/><path d="M293.32155,124.0561l9.85882,1.12032l-4.03315,-7.61818" fill="none" stroke="#242424" stroke-width="7" stroke-linecap="round"/><path d="M330.03338,124.94892l-9.87948,0.92052l4.18654,-7.53498" data-paper-data="{&quot;index&quot;:null}" fill="none" stroke="#242424" stroke-width="7" stroke-linecap="round"/></g></g></svg>