<svg version="1.1" xmlns="http://www.w3.org/2000/svg" xmlns:xlink="http://www.w3.org/1999/xlink" width="175.83335" height="204.25222" viewBox="0,0,175.83335,204.25222"><g transform="translate(-232.08334,-64.99779)"><g data-paper-data="{&quot;isPaintingLayer&quot;:true}" fill-rule="nonzero" stroke-linejoin="miter" stroke-miterlimit="10" stroke-dasharray="" stroke-dashoffset="0" style="mix-blend-mode: normal"><g stroke="#000000" stroke-linecap="butt"><path d="M238.83335,181.33333c0,-44.82711 36.33955,-81.16667 81.16667,-81.16667c44.82711,0 81.16667,36.33955 81.16667,81.16667c0,44.82711 -36.33955,81.16667 -81.16667,81.16667c-44.82711,0 -81.16667,-36.33955 -81.16667,-81.16667z" fill="#5a6380" stroke-width="13.5"/><path d="M256.47722,231.30217c-7.47128,-9.81409 -7.17511,-22.60629 0.66152,-28.57216c7.83663,-5.96587 20.24614,-2.84627 27.71742,6.96782c7.47128,9.81409 7.17511,22.60629 -0.66152,28.57216c-7.83663,5.96587 -20.24614,2.84627 -27.71742,-6.96782z" fill="#353e58" stroke-width="9.5"/><path d="M398.41237,205.3548c-4.8308,14.03692 -18.37458,22.10274 -30.25087,18.01552c-11.87629,-4.08722 -17.58779,-18.77974 -12.75699,-32.81666c4.8308,-14.03692 18.37458,-22.10274 30.25087,-18.01552c11.87629,4.08722 17.58779,18.77974 12.75699,32.81666z" fill="#353e58" stroke-width="9.5"/><path d="M352.83335,125.66667c0,15.55602 -13.28222,28.16667 -29.66667,28.16667c-16.38445,0 -29.66667,-12.61065 -29.66667,-28.16667c0,-15.55602 13.28222,-28.16667 29.66667,-28.16667c16.38445,0 29.66667,12.61065 29.66667,28.16667z" fill="#353e58" stroke-width="9.5"/><path d="M238.83336,181.33334c0,-44.82711 36.33955,-81.16667 81.16667,-81.16667c44.82711,0 81.16667,36.33955 81.16667,81.16667c0,44.82711 -36.33955,81.16667 -81.16667,81.16667c-44.82711,0 -81.16667,-36.33955 -81.16667,-81.16667z" fill="none" stroke-width="13.5"/><path d="M320.16668,185.6442c0,7.26037 -5.37258,13.14607 -12,13.14607c-6.62742,0 -12,-5.88569 -12,-13.14607c0,-7.26037 5.37258,-13.14607 12,-13.14607c6.62742,0 12,5.88569 12,13.14607z" fill="#353e58" stroke-width="9.5"/></g><g><path d="M356.01576,98.61395l-0.64607,3.96153l-19.21981,4.17187" fill="none" stroke="#242424" stroke-width="4.5" stroke-linecap="round"/><path d="M344.35343,93.85112l-0.33992,4.31998l-8.18287,8.38394" fill="none" stroke="#242424" stroke-width="4.5" stroke-linecap="round"/><path d="M333.21025,84.61523l2.60731,22.10597" fill="none" stroke="#242424" stroke-width="4.5" stroke-linecap="round"/><path d="M333.50333,85.13983c0,0 0.40373,23.81141 0.12746,25.78539c-0.1487,1.06243 -1.65924,2.18062 -1.65924,2.18062" fill="none" stroke="#242424" stroke-width="4.5" stroke-linecap="round"/><path d="M333.50333,85.13983c0,0 -5.76627,21.48693 -6.04255,23.46091c-0.1487,1.06243 -3.06311,0.89988 -3.06311,0.89988" fill="none" stroke="#242424" stroke-width="4.5" stroke-linecap="round"/><path d="M324.90312,73.45001c1.31629,-4.55403 6.07511,-7.17875 10.62914,-5.86247c4.55403,1.31629 7.17875,6.07511 5.86247,10.62914c-1.31629,4.55403 -6.07511,7.17875 -10.62914,5.86247c-4.55403,-1.31629 -7.17875,-6.07511 -5.86247,-10.62914z" fill="#ffffff" stroke="#242424" stroke-width="4.5" stroke-linecap="butt"/><path d="M326.06461,75.43387l13.12658,-2.79852" fill="none" stroke="#242424" stroke-width="4.5" stroke-linecap="round"/><path d="M335.08042,68.42564c2.65471,-0.09059 3.57445,2.21193 2.079,4.38325c-0.29902,0.43416 -5.0464,1.64353 -8.14272,1.79072c-0.47017,0.16217 -0.99324,0.18601 -1.50735,0.03741c-0.13797,-0.03988 -0.26986,-0.09061 -0.39501,-0.15099c-0.40365,-0.10391 -0.66562,-0.27583 -0.728,-0.53321c-0.58713,-0.62238 -0.83927,-1.5302 -0.5845,-2.41167c0.36214,-1.25289 1.61887,-2.00442 2.87493,-1.76079c2.02073,-0.83163 4.44572,-1.28792 6.40366,-1.35473z" fill="#242424" stroke="none" stroke-width="0.5" stroke-linecap="butt"/></g></g></g></svg>