<svg version="1.1" xmlns="http://www.w3.org/2000/svg" xmlns:xlink="http://www.w3.org/1999/xlink" width="49.36667" height="140.83333" viewBox="0,0,49.36667,140.83333"><defs><radialGradient cx="320.10417" cy="291.2" r="8.15" gradientUnits="userSpaceOnUse" id="color-1"><stop offset="0" stop-color="#fcff00"/><stop offset="1" stop-color="#fcff00" stop-opacity="0"/></radialGradient><radialGradient cx="319.9375" cy="289.4" r="24.68333" gradientUnits="userSpaceOnUse" id="color-2"><stop offset="0" stop-color="#fcff00"/><stop offset="1" stop-color="#fcff00" stop-opacity="0"/></radialGradient></defs><g transform="translate(-295.25417,-173.25)"><g data-paper-data="{&quot;isPaintingLayer&quot;:true}" fill-rule="nonzero" stroke-linejoin="miter" stroke-miterlimit="10" stroke-dasharray="" stroke-dashoffset="0" style="mix-blend-mode: normal"><path d="M311.95417,291.2c0,-4.50112 3.64888,-8.15 8.15,-8.15c4.50112,0 8.15,3.64888 8.15,8.15c0,4.50112 -3.64888,8.15 -8.15,8.15c-4.50112,0 -8.15,-3.64888 -8.15,-8.15z" fill="url(#color-1)" stroke="none" stroke-width="0" stroke-linecap="butt"/><path d="M315.85417,304.65v-9.6h8.1v9.6z" fill="#653d29" stroke="#000000" stroke-width="3.5" stroke-linecap="butt"/><path d="M336.79167,288.5625c0,13.28935 -7.58318,17.4375 -16.9375,17.4375c-9.35432,0 -16.9375,-4.14815 -16.9375,-17.4375c0,-13.28935 7.58318,-24.0625 16.9375,-24.0625c9.35432,0 16.9375,10.77315 16.9375,24.0625z" fill-opacity="0.3451" fill="#87abcb" stroke="#000000" stroke-width="3.5" stroke-linecap="butt"/><path d="M325.61667,188.35904c0,5.1579 -1.76179,8.14096 -5.67401,8.14096c-3.91222,0 -5.60352,-2.98306 -5.60352,-8.14096c0,-5.1579 1.6913,-7.85904 5.60352,-7.85904c3.91222,0 5.67401,2.70113 5.67401,7.85904z" fill="none" stroke="#000000" stroke-width="14.5" stroke-linecap="butt"/><path d="M319.925,192.55v16.08333" fill="none" stroke="#000000" stroke-width="14.5" stroke-linecap="round"/><path d="M325.41667,214.55904c0,5.1579 -1.76179,8.14096 -5.67401,8.14096c-3.91222,0 -5.60352,-2.98306 -5.60352,-8.14096c0,-5.1579 1.6913,-7.85904 5.60352,-7.85904c3.91222,0 5.67401,2.70113 5.67401,7.85904z" fill="none" stroke="#000000" stroke-width="14.5" stroke-linecap="butt"/><path d="M319.725,219.35v16.08334" fill="none" stroke="#000000" stroke-width="14.5" stroke-linecap="round"/><path d="M325.45,241.69237c0,5.1579 -1.76178,8.14096 -5.674,8.14096c-3.91222,0 -5.60353,-2.98306 -5.60353,-8.14096c0,-5.1579 1.69131,-7.85904 5.60353,-7.85904c3.91222,0 5.674,2.70113 5.674,7.85904z" fill="none" stroke="#000000" stroke-width="14.5" stroke-linecap="butt"/><path d="M319.75834,245.88334v16.08334" fill="none" stroke="#000000" stroke-width="14.5" stroke-linecap="round"/><path d="M325.61667,188.35903c0,5.1579 -1.76179,8.14097 -5.67401,8.14097c-3.91222,0 -5.60352,-2.98307 -5.60352,-8.14097c0,-5.1579 1.6913,-7.85903 5.60352,-7.85903c3.91222,0 5.67401,2.70113 5.67401,7.85903z" fill="none" stroke="#8d9494" stroke-width="7.5" stroke-linecap="butt"/><path d="M319.925,192.55v16.08333" fill="none" stroke="#8d9494" stroke-width="7.5" stroke-linecap="round"/><path d="M325.41667,214.55904c0,5.1579 -1.76179,8.14096 -5.67401,8.14096c-3.91222,0 -5.60352,-2.98306 -5.60352,-8.14096c0,-5.1579 1.6913,-7.85904 5.60352,-7.85904c3.91222,0 5.67401,2.70113 5.67401,7.85904z" fill="none" stroke="#8d9494" stroke-width="7.5" stroke-linecap="butt"/><path d="M319.725,219.35v16.08334" fill="none" stroke="#8d9494" stroke-width="7.5" stroke-linecap="round"/><path d="M325.45,241.69237c0,5.1579 -1.76178,8.14096 -5.674,8.14096c-3.91222,0 -5.60353,-2.98306 -5.60353,-8.14096c0,-5.1579 1.69131,-7.85904 5.60353,-7.85904c3.91222,0 5.674,2.70113 5.674,7.85904z" fill="none" stroke="#8d9494" stroke-width="7.5" stroke-linecap="butt"/><path d="M319.75834,245.88333v16.08333" fill="none" stroke="#8d9494" stroke-width="7.5" stroke-linecap="round"/><path d="M299.36667,269.4v-10.8h41.6v10.8z" fill="#653d29" stroke="#000000" stroke-width="3.5" stroke-linecap="butt"/><path d="M297.49167,308.025v-8.425h45.1v8.425z" fill="#653d29" stroke="#000000" stroke-width="3.5" stroke-linecap="butt"/><path d="M295.25417,289.4c0,-13.63223 11.0511,-24.68333 24.68333,-24.68333c13.63223,0 24.68333,11.0511 24.68333,24.68333c0,13.63223 -11.0511,24.68333 -24.68333,24.68333c-13.63223,0 -24.68333,-11.0511 -24.68333,-24.68333z" fill="url(#color-2)" stroke="none" stroke-width="0" stroke-linecap="butt"/></g></g></svg>