<svg version="1.1" xmlns="http://www.w3.org/2000/svg" xmlns:xlink="http://www.w3.org/1999/xlink" width="78.04539" height="172.01357" viewBox="0,0,78.04539,172.01357"><g transform="translate(-276.47654,-80.58595)"><g data-paper-data="{&quot;isPaintingLayer&quot;:true}" fill-rule="nonzero" stroke="#242424" stroke-linejoin="miter" stroke-miterlimit="10" stroke-dasharray="" stroke-dashoffset="0" style="mix-blend-mode: normal"><path d="M288.28372,221.61279l5.07,-2.07536c0,0 -38.4343,-64.56108 14.99162,-20.43782" fill="none" stroke-width="7" stroke-linecap="round"/><path d="M303.47222,249.09953l-5.14863,-1.8718l10.0853,-48.17839" data-paper-data="{&quot;index&quot;:null}" fill="none" stroke-width="7" stroke-linecap="round"/><path d="M319.81535,145.43552c0,0 6.40633,25.55394 -11.2032,54.2332" fill="none" stroke-width="7" stroke-linecap="round"/><path d="M319.99448,146.76503c0,0 43.19309,33.18511 -9.29259,40.4346" fill="none" stroke-width="7" stroke-linecap="round"/><path d="M323.31132,181.06656c-54.5319,0.18135 -3.47798,-34.83852 -3.47798,-34.83852" data-paper-data="{&quot;index&quot;:null}" fill="none" stroke-width="7" stroke-linecap="round"/><path d="M281.52769,118.1966c0.35317,-19.18864 16.19495,-34.45781 35.38359,-34.10464c19.18864,0.35317 34.45781,16.19495 34.10464,35.38359c-0.35317,19.18864 -16.19495,34.45781 -35.38359,34.10464c-19.18864,-0.35317 -34.45781,-16.19495 -34.10464,-35.38359z" fill="#ffffff" stroke-width="7" stroke-linecap="butt"/><path d="M284.93463,107.435l63.23929,1.16394" fill="none" stroke-width="7" stroke-linecap="round"/><path d="M284.43932,107.17584c0,0 0.34884,-22.40509 31.418,-22.42564c29.56585,-0.01955 31.81669,23.83953 31.81669,23.83953z" fill="#242424" stroke-width="0" stroke-linecap="butt"/><path d="M303.27475,142.16912l23.53994,-4.92642c0,0 15.12672,22.18653 -13.55067,8.92213" fill="#ffffff" stroke-width="5.5" stroke-linecap="round"/><path d="M297.89722,118.80824l4.03315,7.61818l-9.85882,-1.12032" fill="none" stroke-width="7" stroke-linecap="round"/><path d="M328.78338,126.19892l-9.87948,0.92052l4.18654,-7.53498" data-paper-data="{&quot;index&quot;:null}" fill="none" stroke-width="7" stroke-linecap="round"/></g></g></svg>