<svg version="1.1" xmlns="http://www.w3.org/2000/svg" xmlns:xlink="http://www.w3.org/1999/xlink" width="160.625" height="105.375" viewBox="0,0,160.625,105.375"><defs><linearGradient x1="368.99856" y1="200.79916" x2="357.21154" y2="161.10325" gradientUnits="userSpaceOnUse" id="color-1"><stop offset="0" stop-color="#694b2f" stop-opacity="0.24706"/><stop offset="1" stop-color="#694b2f" stop-opacity="0.25882"/></linearGradient></defs><g transform="translate(-239.40625,-127.3125)"><g data-paper-data="{&quot;isPaintingLayer&quot;:true}" fill-rule="nonzero" stroke-linejoin="miter" stroke-miterlimit="10" stroke-dasharray="" stroke-dashoffset="0" style="mix-blend-mode: normal"><g><g fill="#000000" stroke="#000000"><g stroke-width="25" stroke-linecap="round"><path d="M251.90625,140.01394v80.17356"/><path d="M252.46285,139.8125h135.0684"/><path d="M387.53125,219.98606v-80.17356" data-paper-data="{&quot;index&quot;:null}"/><path d="M386.97465,220.1875h-135.0684" data-paper-data="{&quot;index&quot;:null}"/></g><path d="M255.09375,217.5v-77h133v77z" stroke-width="0" stroke-linecap="butt"/></g><g><g fill="none" stroke="#382312" stroke-width="15" stroke-linecap="round"><path d="M251.90625,140.01394v80.17356"/><path d="M252.46285,139.8125h135.0684"/><path d="M387.53125,219.98606v-80.17356" data-paper-data="{&quot;index&quot;:null}"/><path d="M386.97465,220.1875h-135.0684" data-paper-data="{&quot;index&quot;:null}"/></g><path d="M255.09375,217.5v-77h133v77z" fill="#382312" stroke="none" stroke-width="0" stroke-linecap="butt"/></g></g><g><g stroke-width="10"><g fill="#694b2f" stroke="#694b2f" stroke-linecap="round"><path d="M251.90625,140.01394v80.17356"/><path d="M252.46285,139.8125h135.0684"/><path d="M387.53125,219.98606v-80.17356" data-paper-data="{&quot;index&quot;:null}"/><path d="M386.97465,220.1875h-135.0684" data-paper-data="{&quot;index&quot;:null}"/></g><path d="M255.09375,217.5v-77h133v77z" fill="#382312" stroke="#382312" stroke-linecap="butt"/></g><g fill="#694b2f" stroke="#694b2f"><g stroke-width="10" stroke-linecap="round"><path d="M251.90625,140.01394v80.17356"/><path d="M252.46285,139.8125h135.0684"/><path d="M387.53125,219.98606v-80.17356" data-paper-data="{&quot;index&quot;:null}"/><path d="M386.97465,220.1875h-135.0684" data-paper-data="{&quot;index&quot;:null}"/></g><path d="M255.09375,217.5v-77l130.25,0.75v75.75z" stroke-width="0" stroke-linecap="butt"/></g></g><text transform="translate(343.30848,216.48452) rotate(2.57242) scale(0.44795,0.44795)" font-size="40" xml:space="preserve" fill="#1b0a00" fill-rule="nonzero" stroke="#1b0a00" stroke-width="3" stroke-linecap="butt" stroke-linejoin="miter" stroke-miterlimit="10" stroke-dasharray="" stroke-dashoffset="0" font-family="&quot;CooperBlack-Std&quot;, Marker" font-weight="normal" text-anchor="start" style="mix-blend-mode: normal"><tspan x="0" dy="0">$400</tspan></text><text transform="translate(343.3297,216.32059) rotate(2.57242) scale(0.44795,0.44795)" font-size="40" xml:space="preserve" fill="#000000" fill-rule="nonzero" stroke="none" stroke-width="1" stroke-linecap="butt" stroke-linejoin="miter" stroke-miterlimit="10" stroke-dasharray="" stroke-dashoffset="0" font-family="&quot;CooperBlack-Std&quot;, Marker" font-weight="normal" text-anchor="start" style="mix-blend-mode: normal"><tspan x="0" dy="0">$400</tspan></text><g stroke-linecap="butt" font-family="&quot;CooperBlack-Std&quot;, Marker" font-weight="normal" font-size="40" text-anchor="start"><text transform="translate(250.24619,161.86912) rotate(-0.79542) scale(0.72791,0.72791)" font-size="40" xml:space="preserve" fill="#1b0a00" fill-rule="nonzero" stroke="#1b0a00" stroke-width="3" stroke-linecap="butt" stroke-linejoin="miter" stroke-miterlimit="10" stroke-dasharray="" stroke-dashoffset="0" font-family="&quot;CooperBlack-Std&quot;, Marker" font-weight="normal" text-anchor="start" style="mix-blend-mode: normal"><tspan x="0" dy="0">Mobile</tspan><tspan x="0" dy="48px">Bro</tspan></text><text transform="translate(250.26495,161.60117) rotate(-0.79542) scale(0.72791,0.72791)" font-size="40" xml:space="preserve" fill="#000000" fill-rule="nonzero" stroke="none" stroke-width="1" stroke-linecap="butt" stroke-linejoin="miter" stroke-miterlimit="10" stroke-dasharray="" stroke-dashoffset="0" font-family="&quot;CooperBlack-Std&quot;, Marker" font-weight="normal" text-anchor="start" style="mix-blend-mode: normal"><tspan x="0" dy="0">Mobile</tspan><tspan x="0" dy="48px">Bro</tspan></text></g><g stroke="#000000" stroke-width="3"><path d="M356.25274,199.06471l-6.55177,-32.44409l20.32347,-4.10413l6.55177,32.44409z" fill="#ffffff" stroke-linecap="butt"/><path d="M359.72288,181.54408l-1.75538,-8.69256" fill="none" stroke-linecap="round"/><path d="M369.4769,189.46189c0,0 -10.63621,2.8597 -10.35894,-1.93418" fill="none" stroke-linecap="round"/><path d="M365.06847,171.41754l1.75538,8.69257" fill="none" stroke-linecap="round"/></g><path d="M388.79438,196.48285l-39.59161,8.63261l-11.78702,-39.69591l39.59161,-8.63261z" fill="url(#color-1)" stroke="none" stroke-width="3" stroke-linecap="butt"/></g></g></svg>