<svg version="1.1" xmlns="http://www.w3.org/2000/svg" xmlns:xlink="http://www.w3.org/1999/xlink" width="76.40492" height="216.8628" viewBox="0,0,76.40492,216.8628"><g transform="translate(-281.70182,-72.66781)"><g data-paper-data="{&quot;isPaintingLayer&quot;:true}" fill-rule="nonzero" stroke="#242424" stroke-linejoin="miter" stroke-miterlimit="10" stroke-dasharray="" stroke-dashoffset="0" style="mix-blend-mode: normal"><path d="M310.90874,279.23061l3.8481,-5.57145c0,0 -7.79511,-24.35571 4.93264,-65.84763" fill="none" stroke-width="7" stroke-linecap="round"/><path d="M327.29839,286.0306l-3.0481,-4.17145l-4.33264,-74.04763" data-paper-data="{&quot;index&quot;:null}" fill="none" stroke-width="7" stroke-linecap="round"/><path d="M319.81535,145.93553v63.64389" fill="none" stroke-width="7" stroke-linecap="round"/><path d="M320.09822,145.6022l6.16783,68.66667" fill="none" stroke-width="7" stroke-linecap="round"/><path d="M315.20063,212.13553l2.00983,-3.69682c0,0 -17.09986,-13.81554 1.89133,-62.30318" data-paper-data="{&quot;index&quot;:null}" fill="none" stroke-width="7" stroke-linecap="round"/><path d="M285.20182,108.32905c1.43062,-19.13849 18.10519,-33.49357 37.24368,-32.06295c19.13849,1.43062 33.49357,18.10519 32.06295,37.24368c-1.43062,19.13849 -18.10519,33.49357 -37.24368,32.06295c-19.13849,-1.43062 -33.49357,-18.10519 -32.06295,-37.24368z" fill="#ffffff" stroke-width="7" stroke-linecap="butt"/><path d="M289.20796,97.77584l63.07403,4.71484" fill="none" stroke-width="7" stroke-linecap="round"/><path d="M288.72799,97.48927c0,0 1.60699,-22.35011 32.62824,-20.62518c29.52025,1.64147 30.42715,25.58932 30.42715,25.58932z" fill="#242424" stroke-width="0" stroke-linecap="butt"/><path d="M305.31347,120.46361v-9.75" fill="none" stroke-width="7" stroke-linecap="round"/><path d="M324.03013,121.93028v-9.75" data-paper-data="{&quot;index&quot;:null}" fill="none" stroke-width="7" stroke-linecap="round"/><path d="M299.3,107.20001l8.2,1.6" fill="none" stroke-width="5.5" stroke-linecap="round"/><path d="M307.67768,133.75191c0,0 12.10949,-11.31669 17.11382,2.25716c0.30285,0.82146 -13.05986,2.00355 -13.05986,2.00355" fill="none" stroke-width="5" stroke-linecap="round"/></g></g></svg>