<svg version="1.1" xmlns="http://www.w3.org/2000/svg" xmlns:xlink="http://www.w3.org/1999/xlink" width="140.1533" height="181.81191" viewBox="0,0,140.1533,181.81191"><g transform="translate(-249.92335,-0.07143)"><g data-paper-data="{&quot;isPaintingLayer&quot;:true}" fill-rule="nonzero" stroke-linejoin="miter" stroke-miterlimit="10" stroke-dasharray="" stroke-dashoffset="0" style="mix-blend-mode: normal"><path d="M304.7,179.38334v-130.7l5.57211,-15.15212l3.72834,3.04105l-1.27228,-9.71978l7.19645,-19.56916l3.01957,8.13056l-1.48706,5.9849l4.16839,1.23492l9.67446,26.04963v130.7z" fill="#b18e61" stroke="#000000" stroke-width="5" stroke-linecap="butt"/><path d="M305.275,178.88334l0.64601,-3.49917l21.35399,-3.75083l3.75,-133.25l3.50539,10.74988l0.49461,129.75012z" fill-opacity="0.50196" fill="#000000" stroke="#000000" stroke-width="0" stroke-linecap="butt"/><g><path d="M252.42335,129.88402v-18.38401c0,0 11,-1.37534 11,-2.5c0,-1.15244 -11,-4.33333 -11,-4.33333v-24.66667c0,0 16.83333,-2.48639 16.83333,-3.83333c0,-1.37472 -16.83333,-4.33333 -16.83333,-4.33333v-19.05068h135.1533v17.88401c0,0 -4.33333,2.37534 -4.33333,3.5c0,1.15244 4.33333,3.33333 4.33333,3.33333v30.83333c0,0 -6.5,2.28321 -6.5,3.5c0,1.10593 6.5,3.5 6.5,3.5v14.55068z" fill="#613c20" stroke="#000000" stroke-width="5" stroke-linecap="butt"/><path d="M268.41667,77.16666l34.31699,-2.26374l8.5138,0.86323l71.00254,-0.59948" fill="none" stroke-opacity="0.50196" stroke="#000000" stroke-width="5" stroke-linecap="round"/><path d="M267.91667,75.83334l34.31699,-2.26374l8.51381,0.86323l71.00254,-0.59949" fill="none" stroke="#442a16" stroke-width="5" stroke-linecap="round"/><path d="M265.08333,109.50001c0,0 68.7578,2.02409 81.83315,2.06154c4.27031,0.01224 6.33079,-1.80899 6.33079,-1.80899l31.50272,3.91411" fill="none" stroke-opacity="0.50196" stroke="#000000" stroke-width="5" stroke-linecap="round"/><path d="M264.25,108.33334c0,0 68.75781,2.02409 81.83316,2.06155c4.27032,0.01223 6.33079,-1.80899 6.33079,-1.80899l27.50272,3.41411" fill="none" stroke="#442a16" stroke-width="5" stroke-linecap="round"/><path d="M252.42335,129.88402v-18.38401c0,0 11,-1.37534 11,-2.5c0,-1.15243 -11,-4.33333 -11,-4.33333v-24.66667c0,0 16.83333,-2.48639 16.83333,-3.83333c0,-1.37472 -16.83333,-4.33334 -16.83333,-4.33334v-19.05068h135.1533v17.88401c0,0 -4.33333,2.37534 -4.33333,3.5c0,1.15243 4.33333,3.33333 4.33333,3.33333v30.83334c0,0 -6.5,2.28321 -6.5,3.5c0,1.10593 6.5,3.5 6.5,3.5v14.55068z" fill="none" stroke="#000000" stroke-width="5" stroke-linecap="butt"/><path d="M253.25,130.66667l0.37846,-6.21524l123.66009,-2.26937l0.62812,-67.84872l9.83333,-1l-0.03592,16.49992c0,0 -4.0055,2.89031 -4.00824,4.16844c-0.00275,1.27765 3.99176,3.49891 3.99176,3.49891l-0.06663,31.00022c0,0 -5.17191,2.87863 -5.17438,4.00037c-0.00229,1.03835 5.16006,2.49924 5.16006,2.49924l-0.03331,15.66624z" fill-opacity="0.50196" fill="#000000" stroke="none" stroke-width="0" stroke-linecap="butt"/><text transform="translate(270.15546,99.98138) rotate(4.36431) scale(0.90331,0.90331)" font-size="40" xml:space="preserve" fill="#1b0a00" fill-rule="nonzero" stroke="#1b0a00" stroke-width="3" stroke-linecap="butt" stroke-linejoin="miter" stroke-miterlimit="10" stroke-dasharray="" stroke-dashoffset="0" font-family="&quot;CooperBlack-Std&quot;, Marker" font-weight="normal" text-anchor="start" style="mix-blend-mode: normal"><tspan x="0" dy="0">Shop</tspan></text><text transform="translate(270.15546,99.98138) rotate(4.36431) scale(0.90331,0.90331)" font-size="40" xml:space="preserve" fill="#000000" fill-rule="nonzero" stroke="none" stroke-width="1" stroke-linecap="butt" stroke-linejoin="miter" stroke-miterlimit="10" stroke-dasharray="" stroke-dashoffset="0" font-family="&quot;CooperBlack-Std&quot;, Marker" font-weight="normal" text-anchor="start" style="mix-blend-mode: normal"><tspan x="0" dy="0">Shop</tspan></text></g></g></g></svg>