<svg version="1.1" xmlns="http://www.w3.org/2000/svg" xmlns:xlink="http://www.w3.org/1999/xlink" width="66.1436" height="112.67863" viewBox="0,0,66.1436,112.67863"><g transform="translate(-286.50597,-125.53756)"><g data-paper-data="{&quot;isPaintingLayer&quot;:true}" fill-rule="nonzero" stroke-linejoin="miter" stroke-miterlimit="10" stroke-dasharray="" stroke-dashoffset="0" style="mix-blend-mode: normal"><path d="M336.81102,207.56257l-16.6097,-28.56077" data-paper-data="{&quot;index&quot;:null}" fill="none" stroke="#242424" stroke-width="12.5" stroke-linecap="round"/><path d="M319.49307,182.27375l-18.04698,22.0608" fill="none" stroke="#242424" stroke-width="12.5" stroke-linecap="round"/><path d="M318.91889,175.66748l-0.51297,35.13861" fill="none" stroke="#242424" stroke-width="12.5" stroke-linecap="round"/><path d="M317.12349,211.83203l-17.69755,16.92809" fill="none" stroke="#242424" stroke-width="12.5" stroke-linecap="round"/><path d="M318.40392,211.60943l13.85425,20.19463" data-paper-data="{&quot;index&quot;:null}" fill="none" stroke="#242424" stroke-width="12.5" stroke-linecap="round"/><path d="M298.4,219.14189l0.8977,9.10526" fill="none" stroke="#242424" stroke-width="12.5" stroke-linecap="round"/><path d="M332.12793,231.96619l0.8977,-9.10525" data-paper-data="{&quot;index&quot;:null}" fill="none" stroke="#242424" stroke-width="12.5" stroke-linecap="round"/><path d="M289.99623,155.98355c0.27357,-3.65983 1.86444,-7.02156 3.30509,-10.1755c0.82528,-1.80676 2.38053,-4.05523 3.49774,-5.64738c2.56292,-3.65244 5.31109,-6.28413 9.27017,-8.39604c1.93789,-1.03374 5.36162,-2.25998 7.41289,-2.87413c3.1997,-0.95799 5.13081,-0.97887 8.80303,-0.70436c5.51662,0.41237 9.48472,1.90216 13.67738,4.44644c2.25413,1.3679 4.25337,3.23326 6.12977,5.2072c1.49388,1.57154 2.98044,3.14136 3.94654,5.09298c0.89923,1.81653 1.63264,5.09013 2.18635,7.09967c0.89453,3.24645 2.12279,6.89195 1.85737,10.44262c-0.19265,2.57721 -0.0542,5.73876 -0.77684,8.07623c-1.39296,4.50572 -3.74152,7.97324 -7.49777,10.93733c-2.59529,2.04797 -4.71568,4.45833 -7.85151,5.88476c-1.82571,0.83048 -4.90355,1.10697 -6.89736,1.58405c-2.95664,0.70745 -6.07146,1.55379 -9.26544,1.31504c-3.49134,-0.26098 -6.84829,-0.79598 -9.772,-2.20822c-2.88366,-1.39289 -5.34063,-3.64964 -7.83922,-5.83898c-1.63645,-1.43391 -3.77034,-2.63925 -5.00348,-4.35478c-1.42,-1.97548 -2.12731,-4.30921 -3.04866,-6.56719c-0.65815,-1.61295 -1.07324,-3.27835 -1.55072,-4.99182c-0.75925,-2.72458 -0.80384,-5.37801 -0.58333,-8.32792z" fill="#ffffff" stroke="#242424" stroke-width="7" stroke-linecap="butt"/><path d="M293.66207,146.54531c0,0 3.81013,0.21075 6.60832,0.41991c0.7365,0.05505 3.0855,0.00554 4.27185,0.09529c0.9008,0.06815 2.78168,1.00942 3.88693,1.08859c1.38184,0.09898 3.13425,-0.2749 4.72331,-0.13634c1.23416,0.10761 4.25034,0.82991 5.56311,0.92838c1.13819,0.08537 2.38564,-0.02454 3.53987,0.05546c0.91257,0.06325 2.88623,0.89637 3.79695,0.9579c1.74424,0.11783 3.35748,-0.55491 5.00541,-0.47365c1.26102,0.06218 2.96923,0.60943 4.14882,0.67648c2.13404,0.12131 4.75305,0.88612 6.45366,0.9536c4.55512,0.18074 6.68465,-0.47802 6.68465,-0.47802" fill="none" stroke="#242424" stroke-width="7" stroke-linecap="round"/><path d="M293.05329,146.58586c0,0 1.3932,-19.37673 28.2875,-17.88128c25.59298,1.42309 26.37923,22.18501 26.37923,22.18501z" fill="#242424" stroke="#242424" stroke-width="0" stroke-linecap="butt"/><path d="M310.55337,165.29003v-8.4529" fill="none" stroke="#242424" stroke-width="7" stroke-linecap="round"/><path d="M327.87819,166.21479v-8.4529" data-paper-data="{&quot;index&quot;:null}" fill="none" stroke="#242424" stroke-width="7" stroke-linecap="round"/><path d="M327.09973,173.35249c-3.313,8.00366 -10.69519,6.92974 -14.93104,0.65582" data-paper-data="{&quot;index&quot;:null}" fill="none" stroke="#242424" stroke-width="5" stroke-linecap="round"/></g></g></svg>