<svg version="1.1" xmlns="http://www.w3.org/2000/svg" xmlns:xlink="http://www.w3.org/1999/xlink" width="160.625" height="105.375" viewBox="0,0,160.625,105.375"><defs><linearGradient x1="334.90661" y1="182.68165" x2="389.76375" y2="182.68165" gradientUnits="userSpaceOnUse" id="color-1"><stop offset="0" stop-color="#694b2f" stop-opacity="0.36863"/><stop offset="1" stop-color="#694b2f" stop-opacity="0.50196"/></linearGradient></defs><g transform="translate(-239.40625,-127.3125)"><g data-paper-data="{&quot;isPaintingLayer&quot;:true}" fill-rule="nonzero" stroke-linejoin="miter" stroke-miterlimit="10" stroke-dasharray="" stroke-dashoffset="0" style="mix-blend-mode: normal"><g><g fill="#000000" stroke="#000000"><g stroke-width="25" stroke-linecap="round"><path d="M251.90625,140.01394v80.17356"/><path d="M252.46285,139.8125h135.0684"/><path d="M387.53125,219.98606v-80.17356" data-paper-data="{&quot;index&quot;:null}"/><path d="M386.97465,220.1875h-135.0684" data-paper-data="{&quot;index&quot;:null}"/></g><path d="M255.09375,217.5v-77h133v77z" stroke-width="0" stroke-linecap="butt"/></g><g><g fill="none" stroke="#382312" stroke-width="15" stroke-linecap="round"><path d="M251.90625,140.01394v80.17356"/><path d="M252.46285,139.8125h135.0684"/><path d="M387.53125,219.98606v-80.17356" data-paper-data="{&quot;index&quot;:null}"/><path d="M386.97465,220.1875h-135.0684" data-paper-data="{&quot;index&quot;:null}"/></g><path d="M255.09375,217.5v-77h133v77z" fill="#382312" stroke="none" stroke-width="0" stroke-linecap="butt"/></g></g><g><g stroke-width="10"><g fill="#694b2f" stroke="#694b2f" stroke-linecap="round"><path d="M251.90625,140.01394v80.17356"/><path d="M252.46285,139.8125h135.0684"/><path d="M387.53125,219.98606v-80.17356" data-paper-data="{&quot;index&quot;:null}"/><path d="M386.97465,220.1875h-135.0684" data-paper-data="{&quot;index&quot;:null}"/></g><path d="M255.09375,217.5v-77h133v77z" fill="#382312" stroke="#382312" stroke-linecap="butt"/></g><g fill="#694b2f" stroke="#694b2f"><g stroke-width="10" stroke-linecap="round"><path d="M251.90625,140.01394v80.17356"/><path d="M252.46285,139.8125h135.0684"/><path d="M387.53125,219.98606v-80.17356" data-paper-data="{&quot;index&quot;:null}"/><path d="M386.97465,220.1875h-135.0684" data-paper-data="{&quot;index&quot;:null}"/></g><path d="M255.09375,217.5v-77l130.25,0.75v75.75z" stroke-width="0" stroke-linecap="butt"/></g></g><text transform="translate(250.24619,161.86912) rotate(-0.79542) scale(0.72791,0.72791)" font-size="40" xml:space="preserve" fill="#1b0a00" fill-rule="nonzero" stroke="#1b0a00" stroke-width="3" stroke-linecap="butt" stroke-linejoin="miter" stroke-miterlimit="10" stroke-dasharray="" stroke-dashoffset="0" font-family="&quot;CooperBlack-Std&quot;, Marker" font-weight="normal" text-anchor="start" style="mix-blend-mode: normal"><tspan x="0" dy="0">Hit Per</tspan><tspan x="0" dy="48px">Click</tspan></text><text transform="translate(250.26495,161.60117) rotate(-0.79542) scale(0.72791,0.72791)" font-size="40" xml:space="preserve" fill="#000000" fill-rule="nonzero" stroke="none" stroke-width="1" stroke-linecap="butt" stroke-linejoin="miter" stroke-miterlimit="10" stroke-dasharray="" stroke-dashoffset="0" font-family="&quot;CooperBlack-Std&quot;, Marker" font-weight="normal" text-anchor="start" style="mix-blend-mode: normal"><tspan x="0" dy="0">Hit Per</tspan><tspan x="0" dy="48px">Click</tspan></text><text transform="translate(355.55728,214.93294) rotate(8.92684) scale(0.44795,0.44795)" font-size="40" xml:space="preserve" fill="#1b0a00" fill-rule="nonzero" stroke="#1b0a00" stroke-width="3" stroke-linecap="butt" stroke-linejoin="miter" stroke-miterlimit="10" stroke-dasharray="" stroke-dashoffset="0" font-family="&quot;CooperBlack-Std&quot;, Marker" font-weight="normal" text-anchor="start" style="mix-blend-mode: normal"><tspan x="0" dy="0">$50</tspan></text><text transform="translate(355.59651,214.77236) rotate(8.92684) scale(0.44795,0.44795)" font-size="40" xml:space="preserve" fill="#000000" fill-rule="nonzero" stroke="none" stroke-width="1" stroke-linecap="butt" stroke-linejoin="miter" stroke-miterlimit="10" stroke-dasharray="" stroke-dashoffset="0" font-family="&quot;CooperBlack-Std&quot;, Marker" font-weight="normal" text-anchor="start" style="mix-blend-mode: normal"><tspan x="0" dy="0">$50</tspan></text><g stroke="#000000" stroke-width="2.5"><path d="M377.00096,196.07627l-12.73532,-8.23449l4.21968,-4.26579l10.08519,6.52095z" data-paper-data="{&quot;index&quot;:null}" fill="#ff0000" stroke-linecap="butt"/><path d="M385.97884,186.06603c-3.03623,4.69579 -9.30428,6.04112 -14.00007,3.00489c-4.69579,-3.03624 -6.04112,-9.30428 -3.00489,-14.00007c3.03623,-4.69579 9.30428,-6.04112 14.00007,-3.00489c4.69579,3.03624 6.04112,9.30428 3.00489,14.00007z" data-paper-data="{&quot;index&quot;:null}" fill="#ff0000" stroke-linecap="butt"/><path d="M368.59007,176.31025c5.96806,-3.98784 6.9687,1.8961 6.9687,1.8961" data-paper-data="{&quot;index&quot;:null}" fill="none" stroke-linecap="round"/><path d="M377.01649,177.8429l-2.50172,1.62075" data-paper-data="{&quot;index&quot;:null}" fill="none" stroke-linecap="round"/><path d="M343.78664,189.05814l11.5283,-3.36633l2.82439,5.29393l-14.55764,4.25091z" data-paper-data="{&quot;index&quot;:null}" fill="#ff0000" stroke-linecap="butt"/><path d="M344.72059,170.52077c5.36772,-1.56741 10.98974,1.51336 12.55714,6.88108c1.56741,5.36772 -1.51335,10.98974 -6.88108,12.55714c-5.36772,1.56741 -10.98974,-1.51336 -12.55715,-6.88108c-1.56741,-5.36772 1.51336,-10.98974 6.88108,-12.55715z" data-paper-data="{&quot;index&quot;:null}" fill="#ff0000" stroke-linecap="butt"/><path d="M350.07137,178.52442c0,0 2.64065,-5.35247 7.21992,0.17482" data-paper-data="{&quot;index&quot;:null}" fill="none" stroke-linecap="round"/><path d="M350.71244,180.02767l-1.93411,-2.26818" data-paper-data="{&quot;index&quot;:null}" fill="none" stroke-linecap="round"/></g><path d="M334.90661,200.11023v-34.85714h54.85714v34.85714z" fill="url(#color-1)" stroke="none" stroke-width="0" stroke-linecap="butt"/></g></g></svg>