<svg version="1.1" xmlns="http://www.w3.org/2000/svg" xmlns:xlink="http://www.w3.org/1999/xlink" width="76.40492" height="214.6628" viewBox="0,0,76.40492,214.6628"><g transform="translate(-281.70182,-72.6678)"><g data-paper-data="{&quot;isPaintingLayer&quot;:true}" fill-rule="nonzero" stroke="#242424" stroke-linejoin="miter" stroke-miterlimit="10" stroke-dasharray="" stroke-dashoffset="0" style="mix-blend-mode: normal"><path d="M319.68948,207.81152l-5.93264,74.44763l-5.2481,1.57145" fill="none" stroke-width="7" stroke-linecap="round"/><path d="M331.09839,283.8306l-5.2481,-1.57145l-5.93264,-74.44763" data-paper-data="{&quot;index&quot;:null}" fill="none" stroke-width="7" stroke-linecap="round"/><path d="M319.81535,145.93552v63.64389" fill="none" stroke-width="7" stroke-linecap="round"/><path d="M320.09822,145.60219l6.16783,68.66667" fill="none" stroke-width="7" stroke-linecap="round"/><path d="M319.90179,145.93552l-7.50116,68" data-paper-data="{&quot;index&quot;:null}" fill="none" stroke-width="7" stroke-linecap="round"/><path d="M285.20182,108.32904c1.43062,-19.13849 18.10519,-33.49357 37.24368,-32.06295c19.13849,1.43062 33.49357,18.10519 32.06295,37.24368c-1.43062,19.13849 -18.10519,33.49357 -37.24368,32.06295c-19.13849,-1.43062 -33.49357,-18.10519 -32.06295,-37.24368z" fill="#ffffff" stroke-width="7" stroke-linecap="butt"/><path d="M289.20796,97.77583l63.07403,4.71484" fill="none" stroke-width="7" stroke-linecap="round"/><path d="M288.72799,97.48926c0,0 1.60699,-22.35011 32.62824,-20.62518c29.52025,1.64147 30.42715,25.58932 30.42715,25.58932z" fill="#242424" stroke-width="0" stroke-linecap="butt"/><path d="M305.31347,110.5136v9.75" fill="none" stroke-width="7" stroke-linecap="round"/><path d="M325.23013,121.93027v-9.75" data-paper-data="{&quot;index&quot;:null}" fill="none" stroke-width="7" stroke-linecap="round"/><path d="M315.125,134.5c0,0 12.03207,2.14548 14.75,-5.25" fill="none" stroke-width="5.5" stroke-linecap="round"/></g></g></svg>