<svg version="1.1" xmlns="http://www.w3.org/2000/svg" xmlns:xlink="http://www.w3.org/1999/xlink" width="92.26467" height="194.72947" viewBox="0,0,92.26467,194.72947"><g transform="translate(-275.34207,-74.6678)"><g data-paper-data="{&quot;isPaintingLayer&quot;:true}" fill-rule="nonzero" stroke-linejoin="miter" stroke-miterlimit="10" stroke-dasharray="" stroke-dashoffset="0" style="mix-blend-mode: normal"><path d="M278.84207,227.18061l3.41477,3.81188c0,0 14.1076,-30.62864 37.58264,-23.29763" fill="none" stroke="#242424" stroke-width="7" stroke-linecap="round"/><path d="M313.46506,265.89727l-6.18143,-0.83812c0,0 11.89269,-31.25516 13.13403,-57.49763" data-paper-data="{&quot;index&quot;:null}" fill="none" stroke="#242424" stroke-width="7" stroke-linecap="round"/><path d="M329.31535,147.93552c-2.6105,33.88269 -9.5,61.64389 -9.5,61.64389" fill="none" stroke="#242424" stroke-width="7" stroke-linecap="round"/><path d="M328.90179,149.43552c0,0 -14.85372,20.82398 -47.36783,28.31667" data-paper-data="{&quot;index&quot;:null}" fill="none" stroke="#242424" stroke-width="7" stroke-linecap="round"/><path d="M294.70182,110.32904c1.43062,-19.13849 18.10519,-33.49357 37.24368,-32.06295c19.13849,1.43062 33.49357,18.10519 32.06295,37.24368c-1.43062,19.13849 -18.10519,33.49357 -37.24368,32.06295c-19.13849,-1.43062 -33.49357,-18.10519 -32.06295,-37.24368z" fill="#ffffff" stroke="#242424" stroke-width="7" stroke-linecap="butt"/><path d="M296.99368,101.2044c45.3177,12.07762 64.78832,3.28627 64.78832,3.28627" fill="none" stroke="#242424" stroke-width="7" stroke-linecap="round"/><path d="M298.22799,99.48926c0,0 1.60699,-22.35011 32.62824,-20.62518c29.52025,1.64147 30.42715,25.58932 30.42715,25.58932c0,0 -21.06863,2.42796 -31.72543,1.58899c-10.35286,-0.81505 -31.32996,-6.55313 -31.32996,-6.55313z" fill="#242424" stroke="#242424" stroke-width="0" stroke-linecap="butt"/><path d="M324.82822,117.51947l3.85196,5.64816l-10.37334,-0.88561" fill="none" stroke="#242424" stroke-width="7" stroke-linecap="round"/><path d="M352.74938,203.65219c1.67042,-24.78401 -22.60116,-54 -22.60116,-54" fill="none" stroke="#242424" stroke-width="7" stroke-linecap="round"/><path d="M357.9659,122.28202l-10.37334,0.88561l3.85196,-5.64816" data-paper-data="{&quot;index&quot;:null}" fill="none" stroke="#242424" stroke-width="7" stroke-linecap="round"/><path d="M335.89534,138.19684c0,0 -9.56931,-5.99917 -11.87957,-1.49328c-2.23839,4.36573 7.21024,4.96813 7.21024,4.96813" fill="none" stroke="#242424" stroke-width="5" stroke-linecap="round"/></g></g></svg>