<svg version="1.1" xmlns="http://www.w3.org/2000/svg" xmlns:xlink="http://www.w3.org/1999/xlink" width="93.46542" height="210.46281" viewBox="0,0,93.46542,210.46281"><g transform="translate(-276.23396,-72.6678)"><g data-paper-data="{&quot;isPaintingLayer&quot;:true}" fill-rule="nonzero" stroke="#242424" stroke-linejoin="miter" stroke-miterlimit="10" stroke-dasharray="" stroke-dashoffset="0" style="mix-blend-mode: normal"><path d="M319.48949,206.74486c-12.32504,24.76899 -5.93264,69.04763 -5.93264,69.04763l-5.91477,3.83812" fill="none" stroke-width="7" stroke-linecap="round"/><path d="M335.36507,271.69727l-6.58143,1.76188c0,0 -3.91398,-33.71836 -8.86597,-64.84763" data-paper-data="{&quot;index&quot;:null}" fill="none" stroke-width="7" stroke-linecap="round"/><path d="M319.81536,209.57941v-63.64389" fill="none" stroke-width="7" stroke-linecap="round"/><path d="M320.09823,145.60219c0,0 32.91967,20.0534 46.10116,37.2" fill="none" stroke-width="7" stroke-linecap="round"/><path d="M319.9018,145.73552c0,0 -18.79154,29.25961 -40.16783,45.26667" data-paper-data="{&quot;index&quot;:null}" fill="none" stroke-width="7" stroke-linecap="round"/><path d="M285.20183,108.32904c1.43062,-19.13849 18.10519,-33.49357 37.24368,-32.06295c19.13849,1.43062 33.49357,18.10519 32.06295,37.24368c-1.43062,19.13849 -18.10519,33.49357 -37.24368,32.06295c-19.13849,-1.43062 -33.49357,-18.10519 -32.06295,-37.24368z" fill="#ffffff" stroke-width="7" stroke-linecap="butt"/><path d="M352.282,102.49067l-63.07403,-4.71484" fill="none" stroke-width="7" stroke-linecap="round"/><path d="M288.728,97.48926c0,0 1.60699,-22.35011 32.62824,-20.62518c29.52025,1.64147 30.42715,25.58932 30.42715,25.58932z" fill="#242424" stroke-width="0" stroke-linecap="butt"/><path d="M303.51348,113.1136v9.75" fill="none" stroke-width="7" stroke-linecap="round"/><path d="M321.49681,124.33027v-9.75" data-paper-data="{&quot;index&quot;:null}" fill="none" stroke-width="7" stroke-linecap="round"/></g></g></svg>