<svg version="1.1" xmlns="http://www.w3.org/2000/svg" xmlns:xlink="http://www.w3.org/1999/xlink" width="384" height="300.80601" viewBox="0,0,384,300.80601"><g transform="translate(-128,-27.93032)"><g data-paper-data="{&quot;isPaintingLayer&quot;:true}" fill-rule="nonzero" stroke="#000000" stroke-linejoin="miter" stroke-miterlimit="10" stroke-dasharray="" stroke-dashoffset="0" style="mix-blend-mode: normal"><path d="M347.48202,199.64913l2,-59.31055" fill="none" stroke-width="7" stroke-linecap="round"/><path d="M363.0673,181.67191c-97.59482,0.65099 -15.49885,-39.33333 -15.49885,-39.33333" data-paper-data="{&quot;index&quot;:null}" fill="none" stroke-width="7" stroke-linecap="round"/><path d="M314.13795,112.92589c-4.39057,-18.68292 7.19568,-37.38769 25.8786,-41.77826c18.68292,-4.39057 37.38769,7.19568 41.77826,25.8786c4.39057,18.68292 -7.19568,37.38769 -25.8786,41.77826c-18.68292,4.39057 -37.38769,-7.19568 -41.77826,-25.8786z" fill="#ffffff" stroke-width="7" stroke-linecap="butt"/><path d="M343.98014,115.33332v-9.75" fill="none" stroke-width="7" stroke-linecap="round"/><path d="M363.8968,113.33333v-9.75" data-paper-data="{&quot;index&quot;:null}" fill="none" stroke-width="7" stroke-linecap="round"/><g><path d="M312.62091,101.11555l-11.40975,-52.52629c0,0 23.53182,-1.72406 34.64796,-4.41096c10.73323,-2.59435 30.94046,-11.4425 30.94046,-11.4425l11.36844,54.7355z" fill="#040404" stroke-width="0" stroke-linecap="butt"/><path d="M294.49948,106.60589l102.83194,-24.16595" fill="none" stroke-width="7" stroke-linecap="round"/><path d="M313.66858,101.83714l-12.87303,-54.77784" fill="none" stroke-width="7" stroke-linecap="round"/><path d="M378.04478,86.70845l-12.87303,-54.77784" data-paper-data="{&quot;index&quot;:null}" fill="none" stroke-width="7" stroke-linecap="round"/><path d="M365.05418,31.43033c0,0 -6.85946,5.77743 -31.66481,11.2221c-22.95334,5.03816 -32.71139,3.90658 -32.71139,3.90658" fill="none" stroke-width="7" stroke-linecap="round"/></g><path d="M385.43272,141.50523c0,0 -8.32935,2.13238 -8.31379,2.23399c1.03413,99.00452 -27.35404,-3.734 -27.35404,-3.734" fill="none" stroke-width="7" stroke-linecap="round"/><path d="M155.5,326.23634v-128h331v128z" fill="#382312" stroke-width="5" stroke-linecap="butt"/><path d="M130.5,210.23636v-26h379v26z" fill="#2a1a0d" stroke-width="5" stroke-linecap="butt"/><path d="M356.49953,130.47083c-1.21179,1.9842 -5.86769,1.24581 -10.19366,0.2011c-4.32597,-1.0447 -7.35052,-1.6668 -6.13874,-3.65099c1.21179,-1.9842 6.20103,-4.57914 10.52699,-3.53443c4.32597,1.0447 7.01718,5.00013 5.8054,6.98432z" fill="none" stroke-width="5" stroke-linecap="butt"/><path d="M338.25,101.66667l8.66667,1" fill="none" stroke-width="7" stroke-linecap="round"/></g></g></svg>