<svg version="1.1" xmlns="http://www.w3.org/2000/svg" xmlns:xlink="http://www.w3.org/1999/xlink" width="58.33334" height="58.33334" viewBox="0,0,58.33334,58.33334"><g transform="translate(-290.83333,-150.83333)"><g data-paper-data="{&quot;isPaintingLayer&quot;:true}" fill-rule="nonzero" stroke-linejoin="miter" stroke-miterlimit="10" stroke-dasharray="" stroke-dashoffset="0" style="mix-blend-mode: normal"><path d="M292.58333,180c0,-15.1418 12.27486,-27.41667 27.41667,-27.41667c15.1418,0 27.41667,12.27486 27.41667,27.41667c0,15.1418 -12.27486,27.41667 -27.41667,27.41667c-15.1418,0 -27.41667,-12.27486 -27.41667,-27.41667z" fill="#a34545" stroke="#242424" stroke-width="3.5" stroke-linecap="butt"/><path d="M320,162.25571v8.76777" fill="none" stroke="#242424" stroke-width="8" stroke-linecap="round"/><path d="M328.39726,167.95424c3.79971,2.65377 6.28527,7.0595 6.28527,12.04576c0,8.10894 -6.57359,14.68253 -14.68253,14.68253c-8.10894,0 -14.68253,-6.57359 -14.68253,-14.68253c0,-5.04419 2.54365,-9.49427 6.41822,-12.13753" fill="none" stroke="#242424" stroke-width="8" stroke-linecap="butt"/><path d="M307.25,168.19052c0,-2.20914 1.79086,-4 4,-4c2.20914,0 4,1.79086 4,4c0,2.20914 -1.79086,4 -4,4c-2.20914,0 -4,-1.79086 -4,-4z" fill="#242424" stroke="none" stroke-width="0.5" stroke-linecap="butt"/><path d="M324.75,168.19053c0,-2.20914 1.79086,-4 4,-4c2.20914,0 4,1.79086 4,4c0,2.20914 -1.79086,4 -4,4c-2.20914,0 -4,-1.79086 -4,-4z" fill="#242424" stroke="none" stroke-width="0.5" stroke-linecap="butt"/></g></g></svg>