<svg version="1.1" xmlns="http://www.w3.org/2000/svg" xmlns:xlink="http://www.w3.org/1999/xlink" width="114.86542" height="208.3868" viewBox="0,0,114.86542,208.3868"><g transform="translate(-262.23396,-72.6678)"><g data-paper-data="{&quot;isPaintingLayer&quot;:true}" fill-rule="nonzero" stroke="#242424" stroke-linejoin="miter" stroke-miterlimit="10" stroke-dasharray="" stroke-dashoffset="0" style="mix-blend-mode: normal"><path d="M319.68948,207.14486c-12.32504,24.76899 -24.93264,68.44763 -24.93264,68.44763l-5.91477,-3.76188" fill="none" stroke-width="7" stroke-linecap="round"/><path d="M344.76506,274.49727l-6.58143,1.76188c0,0 -7.11398,-44.51836 -18.26597,-68.44763" data-paper-data="{&quot;index&quot;:null}" fill="none" stroke-width="7" stroke-linecap="round"/><path d="M319.81535,145.93552v63.64389" fill="none" stroke-width="7" stroke-linecap="round"/><path d="M320.09822,145.60219l53.50116,34" fill="none" stroke-width="7" stroke-linecap="round"/><path d="M319.90179,145.93552l-54.16783,35.66667" data-paper-data="{&quot;index&quot;:null}" fill="none" stroke-width="7" stroke-linecap="round"/><path d="M285.20182,108.32904c1.43062,-19.13849 18.10519,-33.49357 37.24368,-32.06295c19.13849,1.43062 33.49357,18.10519 32.06295,37.24368c-1.43062,19.13849 -18.10519,33.49357 -37.24368,32.06295c-19.13849,-1.43062 -33.49357,-18.10519 -32.06295,-37.24368z" fill="#ffffff" stroke-width="7" stroke-linecap="butt"/><path d="M289.20796,97.77583l63.07403,4.71484" fill="none" stroke-width="7" stroke-linecap="round"/><path d="M288.72799,97.48926c0,0 1.60699,-22.35011 32.62824,-20.62518c29.52025,1.64147 30.42715,25.58932 30.42715,25.58932z" fill="#242424" stroke-width="0" stroke-linecap="butt"/><path d="M308.91347,109.3136v9.75" fill="none" stroke-width="7" stroke-linecap="round"/><path d="M328.8968,120.13027v-9.75" data-paper-data="{&quot;index&quot;:null}" fill="none" stroke-width="7" stroke-linecap="round"/></g></g></svg>