<svg version="1.1" xmlns="http://www.w3.org/2000/svg" xmlns:xlink="http://www.w3.org/1999/xlink" width="90.66543" height="206.94828" viewBox="0,0,90.66543,206.94828"><g transform="translate(-273.63397,-72.6678)"><g data-paper-data="{&quot;isPaintingLayer&quot;:true}" fill-rule="nonzero" stroke="#242424" stroke-linejoin="miter" stroke-miterlimit="10" stroke-dasharray="" stroke-dashoffset="0" style="mix-blend-mode: normal"><path d="M319.48949,206.74486c-12.32504,24.76899 -22.73264,67.84763 -22.73264,67.84763l-4.51477,-2.16188" fill="none" stroke-width="7" stroke-linecap="round"/><path d="M319.91769,208.61152c15.55199,32.32927 -0.33403,65.64763 -0.33403,65.64763l4.58143,1.63812" data-paper-data="{&quot;index&quot;:null}" fill="none" stroke-width="7" stroke-linecap="round"/><path d="M319.81537,145.93552v63.64389" fill="none" stroke-width="7" stroke-linecap="round"/><path d="M360.79941,186.40219c-20.57272,-16.89086 -40.70116,-40.8 -40.70116,-40.8" fill="none" stroke-width="7" stroke-linecap="round"/><path d="M277.13397,188.00219c9.77629,-23.00706 42.76783,-42.26667 42.76783,-42.26667" data-paper-data="{&quot;index&quot;:null}" fill="none" stroke-width="7" stroke-linecap="round"/><path d="M285.20183,108.32904c1.43062,-19.13849 18.10519,-33.49357 37.24368,-32.06295c19.13849,1.43062 33.49357,18.10519 32.06295,37.24368c-1.43062,19.13849 -18.10519,33.49357 -37.24368,32.06295c-19.13849,-1.43062 -33.49357,-18.10519 -32.06295,-37.24368z" fill="#ffffff" stroke-width="7" stroke-linecap="butt"/><path d="M352.28201,102.49067l-63.07403,-4.71484" fill="none" stroke-width="7" stroke-linecap="round"/><path d="M288.72801,97.48926c0,0 1.60699,-22.35011 32.62824,-20.62518c29.52025,1.64147 30.42715,25.58932 30.42715,25.58932z" fill="#242424" stroke-width="0" stroke-linecap="butt"/><path d="M306.9135,114.7136v9.75" fill="none" stroke-width="7" stroke-linecap="round"/><path d="M326.69682,125.73027v-9.75" data-paper-data="{&quot;index&quot;:null}" fill="none" stroke-width="7" stroke-linecap="round"/></g></g></svg>